<svg width="84" height="19" viewBox="0 0 84 19" fill="none" xmlns="http://www.w3.org/2000/svg">
<g clip-path="url(#clip0_646_41001)">
<path d="M14.4803 0C6.47009 0 0 3.62845 0 8.12984C0 10.0352 1.17494 11.7811 3.1755 13.193C2.22644 12.1329 1.68818 10.7925 1.65126 9.39752C1.65126 4.74431 8.00227 0.964043 15.7981 0.964043C20.8234 0.94127 25.2453 2.4974 27.7857 4.87335C25.5072 2.004 20.3947 0 14.4803 0Z" fill="#8CC23C"/>
<path d="M13.2025 10.4221C13.7037 10.4493 14.2011 10.3245 14.6236 10.0653C14.8249 9.94635 14.9892 9.778 15.0995 9.57777C15.2098 9.37755 15.262 9.15274 15.2507 8.9267C15.2415 7.99248 14.9031 7.08853 14.2901 6.36098C13.6745 5.57063 12.8535 4.94785 11.9085 4.55435C11.1769 4.27391 10.3945 4.13461 9.60628 4.14444C8.81841 4.11616 8.03304 4.24535 7.30035 4.52375C6.56766 4.80215 5.90377 5.22365 5.35111 5.7613C4.81949 6.26179 4.39971 6.8603 4.11723 7.52055C3.83475 8.1808 3.69545 8.88903 3.70778 9.60229C3.6957 10.3157 3.84314 11.0234 4.14024 11.678C4.43734 12.3326 4.87724 12.9189 5.43049 13.3977C6.60076 14.4242 8.14622 14.9695 9.7333 14.9159C10.6317 14.9202 11.5256 14.7948 12.3848 14.544C13.2334 14.3485 14.0001 13.9118 14.5839 13.2915C14.8189 13.0425 14.9564 12.7232 14.9729 12.3881C14.9729 11.6291 14.5124 11.2116 13.5915 11.2116C13.0422 11.3099 12.5086 11.4757 12.0038 11.705C11.3324 12.0022 10.6072 12.1723 9.86826 12.206C9.23681 12.2252 8.61408 12.0611 8.08204 11.7353C7.84271 11.587 7.64231 11.388 7.49638 11.1536C7.35045 10.9193 7.26291 10.656 7.24053 10.3842L13.2025 10.4221ZM8.03441 7.13525C8.48406 6.79299 9.04798 6.61774 9.62216 6.64184C10.1669 6.63719 10.6958 6.8174 11.1146 7.15043C11.32 7.30654 11.4889 7.50199 11.6106 7.72423C11.7323 7.94646 11.804 8.19057 11.8212 8.44088H7.24053C7.33779 7.93046 7.61862 7.4686 8.03441 7.13525ZM17.1878 13.3826C17.7447 13.9087 18.4097 14.3186 19.1408 14.5865C19.8718 14.8543 20.653 14.9743 21.435 14.9387C22.3347 14.9653 23.2301 14.8101 24.0628 14.4832C25.0392 14.0657 25.5235 13.542 25.5235 12.9651C25.5314 12.6214 25.3974 12.2887 25.1504 12.039C25.0247 11.911 24.8718 11.8102 24.702 11.7435C24.5322 11.6767 24.3494 11.6454 24.166 11.6518C23.8107 11.6699 23.4615 11.7469 23.1339 11.8796C22.6983 12.028 22.2389 12.1025 21.7764 12.0997C21.415 12.1171 21.0541 12.0581 20.7192 11.9269C20.3844 11.7957 20.084 11.5955 19.8393 11.3406C19.4152 10.8315 19.2005 10.1916 19.236 9.54156C19.2093 8.9033 19.414 8.2758 19.8155 7.7653C20.0372 7.50975 20.3188 7.30782 20.6375 7.17592C20.9561 7.04402 21.3028 6.98587 21.6494 7.00621C22.1154 6.99008 22.5806 7.05436 23.0228 7.19598C23.3615 7.32952 23.7209 7.40901 24.0866 7.4313C24.2764 7.43719 24.4655 7.40663 24.6428 7.34144C24.82 7.27625 24.9818 7.17775 25.1186 7.05175C25.2514 6.9369 25.357 6.79618 25.4282 6.63906C25.4994 6.48194 25.5346 6.31206 25.5314 6.14085C25.5314 5.43489 25.0551 4.91112 24.1104 4.56194C23.3141 4.29933 22.4756 4.1734 21.6335 4.18999C20.8392 4.15364 20.0453 4.2692 19.2983 4.52988C18.5513 4.79057 17.8662 5.19115 17.2831 5.70816C16.7409 6.20868 16.3151 6.81277 16.0333 7.4811C15.7516 8.14942 15.6202 8.867 15.6477 9.58711C15.6243 10.2869 15.7494 10.984 16.0155 11.6363C16.2816 12.2886 16.683 12.8826 17.1957 13.3826H17.1878ZM27.2224 13.3977C27.7864 13.9277 28.4574 14.3423 29.1944 14.6164C29.9314 14.8904 30.719 15.0182 31.5093 14.9918C32.2979 15.0211 33.0845 14.897 33.8214 14.6269C34.5584 14.3568 35.2302 13.9464 35.7962 13.4205C36.3201 12.9171 36.7311 12.3169 37.0041 11.6565C37.2771 10.996 37.4064 10.2893 37.384 9.57952C37.4088 8.86487 37.2808 8.1529 37.0078 7.48721C36.7348 6.82153 36.3225 6.21615 35.7962 5.70816C35.2322 5.18956 34.5628 4.78722 33.8294 4.52608C33.0961 4.26493 32.3146 4.15054 31.5331 4.18999C30.7502 4.16249 29.9696 4.28686 29.2382 4.55561C28.5069 4.82436 27.8401 5.23191 27.278 5.75371C26.7415 6.25549 26.3188 6.85746 26.036 7.52217C25.7533 8.18688 25.6167 8.9001 25.6346 9.61747C25.6155 10.3201 25.7465 11.0191 26.0195 11.6716C26.2925 12.3242 26.7018 12.9167 27.2224 13.4129V13.3977ZM29.7469 7.81843C29.9556 7.56429 30.222 7.35881 30.526 7.21751C30.8299 7.07622 31.1634 7.0028 31.5014 7.0028C31.8393 7.0028 32.1729 7.07622 32.4768 7.21751C32.7807 7.35881 33.0471 7.56429 33.2558 7.81843C33.6368 8.31749 33.8324 8.92401 33.8116 9.54156C33.8375 10.161 33.6507 10.7715 33.2797 11.2799C33.0852 11.5555 32.8208 11.7794 32.5111 11.9308C32.2015 12.0821 31.8569 12.1559 31.5093 12.1452C31.169 12.1583 30.8307 12.0894 30.5255 11.9448C30.2204 11.8002 29.9581 11.5846 29.7628 11.3178C29.3806 10.8136 29.1851 10.2019 29.2071 9.57952C29.1835 8.95688 29.373 8.34387 29.7469 7.83361V7.81843Z" fill="white"/>
<path d="M42.2822 3.89434H43.87C45.5054 3.89434 46.3231 4.48643 46.3231 5.67061C46.3231 6.87756 45.5292 7.48483 43.87 7.48483H42.2822V3.89434ZM42.2822 12.6466V10.3162H44.6639C46.1179 10.404 47.5545 9.97403 48.6968 9.10928C49.1929 8.67932 49.5822 8.14879 49.8363 7.55646C50.0904 6.96414 50.2028 6.32501 50.1654 5.68579C50.2048 5.03 50.0815 4.3746 49.8056 3.77305C49.5296 3.1715 49.1089 2.64083 48.5777 2.22434C47.3859 1.37988 45.9226 0.960931 44.4416 1.04016H41.1788C40.494 0.97191 39.8063 1.14167 39.2417 1.51839C39.0371 1.75275 38.8839 2.02404 38.7912 2.31614C38.6984 2.60825 38.6681 2.9152 38.7019 3.21875V12.639C38.7019 14.1041 39.2973 14.8404 40.4881 14.8404C41.6789 14.8404 42.2822 14.0813 42.2822 12.6466ZM54.5159 7.87956C54.7123 7.63152 54.9689 7.43283 55.2634 7.3006C55.558 7.16837 55.8817 7.10655 56.2068 7.12047C56.5324 7.10322 56.8573 7.16355 57.1524 7.29604C57.4476 7.42853 57.7037 7.62904 57.8978 7.87956C58.2561 8.36444 58.4375 8.94867 58.4138 9.54196C58.4374 10.1423 58.2563 10.7338 57.8978 11.2271C57.7037 11.4777 57.4476 11.6782 57.1524 11.8107C56.8573 11.9431 56.5324 12.0035 56.2068 11.9862C55.8781 12.0019 55.5503 11.9411 55.2516 11.8088C54.9529 11.6766 54.6922 11.477 54.4921 11.2271C54.1331 10.7343 53.9545 10.1419 53.984 9.54196C53.9669 8.94363 54.1628 8.35749 54.5397 7.87956H54.5159ZM60.2238 14.8404C61.375 14.8404 61.9465 14.0813 61.9465 12.6315V6.55874C61.9465 5.0937 61.375 4.36497 60.2238 4.36497C59.8828 4.36228 59.5476 4.44939 59.255 4.61676C58.9623 4.78413 58.7235 5.02529 58.5646 5.31383C58.207 4.94988 57.7716 4.66385 57.288 4.47523C56.8045 4.28661 56.2841 4.19981 55.7623 4.22075C55.0109 4.19936 54.264 4.3397 53.577 4.63138C52.8899 4.92307 52.2802 5.35864 51.7929 5.90592C50.8337 6.91421 50.309 8.23216 50.3242 9.5951C50.3023 10.9368 50.8032 12.2382 51.7294 13.2463C52.201 13.7878 52.7942 14.2205 53.465 14.5123C54.1358 14.804 54.8667 14.9473 55.6035 14.9315C56.1491 14.9579 56.6941 14.8696 57.2003 14.6728C57.7064 14.4761 58.1612 14.1758 58.5329 13.7929C58.6607 14.1122 58.8889 14.3858 59.186 14.5761C59.4831 14.7664 59.8346 14.8641 60.1921 14.8556L60.2238 14.8404ZM70.0203 5.54156L67.8927 10.3694L65.908 5.81483C65.7739 5.44323 65.5783 5.09466 65.3285 4.78247C65.1722 4.63797 64.9866 4.52568 64.7832 4.45256C64.5797 4.37944 64.3627 4.34704 64.1456 4.35738C63.6961 4.34404 63.2585 4.49621 62.923 4.78247C62.768 4.91822 62.6448 5.08373 62.5613 5.26817C62.4779 5.45262 62.4361 5.65184 62.4387 5.85279C62.4426 6.13895 62.5103 6.42103 62.6372 6.68019L66.1461 13.808L64.7092 16.5256C64.5354 16.8426 64.4378 17.1927 64.4234 17.5504C64.4146 17.7492 64.4528 17.9473 64.5353 18.13C64.6178 18.3128 64.7424 18.4753 64.8998 18.6055C65.2485 18.8822 65.6936 19.0232 66.1461 19.0002C66.7654 19.0002 67.2735 18.5903 67.6783 17.7857L73.037 6.83201C73.2054 6.50533 73.3001 6.14842 73.3148 5.78447C73.3148 4.82043 72.7433 4.3422 71.5921 4.3422C70.9332 4.3422 70.4251 4.73693 70.06 5.54156H70.0203ZM81.8331 11.8875H78.3957L83.016 6.71815C83.4007 6.36366 83.6495 5.89579 83.7226 5.38974C83.742 5.22246 83.6983 5.05403 83.5993 4.91485C83.5003 4.77566 83.3526 4.67487 83.1827 4.63065C82.64 4.50463 82.0816 4.45099 81.5235 4.47125H75.9664C74.4818 4.47125 73.7435 4.9267 73.7435 5.83761C73.7435 6.74851 74.4739 7.22674 75.9426 7.22674H78.9355L74.1722 12.5935C73.8574 12.9072 73.6738 13.3204 73.6562 13.7549C73.6562 14.3849 74.2675 14.6962 75.4821 14.6962H81.8331C83.2939 14.6962 84.0242 14.2331 84.0242 13.307C84.0242 12.3582 83.3018 11.8875 81.857 11.8875H81.8331Z" fill="#8CC23C"/>
</g>
<defs>
<clipPath id="clip0_646_41001">
<rect width="84" height="19" fill="white"/>
</clipPath>
</defs>
</svg>
