<svg width="56" height="56" viewBox="0 0 56 56" fill="none" xmlns="http://www.w3.org/2000/svg">
<path d="M28.4051 0.316406C29.6496 2.2127 30.9138 4.109 32.1582 6.00529H24.652C25.8965 4.109 27.1409 2.19295 28.4051 0.316406ZM41.1064 32.3954C41.1459 32.1386 41.4817 32.0004 41.699 32.1781C41.8372 32.2769 41.8372 32.4744 41.8372 32.6522C41.8372 33.5213 41.857 34.4102 41.8372 35.2794C41.7977 35.6152 41.3039 35.6942 41.1459 35.4176C40.9286 35.5954 40.6323 35.6744 40.3557 35.5954C39.8817 35.4769 39.5656 34.9831 39.5261 34.509C39.4866 34.0547 39.6446 33.5608 40.0199 33.2843C40.336 33.0473 40.7903 33.067 41.1261 33.2646C41.1064 32.9287 41.0866 32.672 41.1064 32.3954ZM40.5335 33.7781C40.1977 33.9559 40.178 34.4497 40.3755 34.7263C40.494 34.9041 40.7903 34.9436 40.9483 34.7658C41.1261 34.5485 41.1656 34.2127 41.0273 33.9559C40.9483 33.7979 40.7113 33.6991 40.5335 33.7781ZM48.1977 32.3954C48.2372 32.1584 48.494 32.0399 48.7113 32.1386C48.8693 32.1979 48.9286 32.3757 48.9286 32.5337V35.2794C48.8891 35.6152 48.3952 35.6942 48.2372 35.4176C47.7829 35.8127 47.052 35.5954 46.7952 35.0818C46.4792 34.5485 46.5582 33.8374 46.973 33.3831C47.2891 33.0473 47.8224 33.0078 48.1977 33.2448C48.1977 32.9288 48.178 32.6522 48.1977 32.3954ZM47.6249 33.7781C47.2298 33.9954 47.2496 34.7065 47.6644 34.8843C48.0594 34.9831 48.257 34.4892 48.178 34.1732C48.1582 33.9164 47.8817 33.6596 47.6249 33.7781ZM28.4051 32.5337C28.5434 32.3362 28.8792 32.3559 28.9977 32.5534C29.0965 32.7115 29.057 32.909 29.057 33.1065C29.1755 33.1263 29.3335 33.1065 29.4323 33.2053C29.5903 33.3436 29.5706 33.6596 29.373 33.7386C29.2743 33.7781 29.1557 33.7781 29.057 33.7781V35.1806C29.057 35.3781 28.8792 35.5757 28.6817 35.5559C28.4841 35.5559 28.3261 35.3781 28.3261 35.2004C28.3064 34.7263 28.3261 34.2522 28.3261 33.7979C28.1483 33.7979 27.9508 33.7386 27.931 33.5411C27.8718 33.3041 28.1088 33.1065 28.3261 33.1263C28.3261 32.909 28.2668 32.6917 28.4051 32.5337ZM33.2446 32.5139C33.4027 32.3362 33.7187 32.3954 33.8175 32.5929C33.8965 32.751 33.857 32.9288 33.8767 33.1065C33.9952 33.1263 34.1335 33.1065 34.2323 33.1855C34.3903 33.3041 34.3903 33.6004 34.2125 33.7189C34.1138 33.7781 33.9952 33.7584 33.8767 33.7781C33.857 34.2522 33.8767 34.746 33.857 35.2201C33.8372 35.4176 33.6594 35.5757 33.4817 35.5559C33.2841 35.5559 33.1261 35.3781 33.1261 35.2004C33.1064 34.7263 33.1261 34.2522 33.1261 33.7781C32.9483 33.7781 32.7508 33.7189 32.731 33.5213C32.6718 33.2646 32.8891 33.067 33.1261 33.0868C33.1459 32.909 33.0866 32.672 33.2446 32.5139ZM7.7829 33.0868C8.53352 32.8892 9.30389 33.6004 9.20512 34.351C9.18537 34.4892 9.0471 34.588 8.92858 34.588H7.62487C7.70389 34.7855 7.88166 34.9041 8.09895 34.9041C8.39524 34.9436 8.59278 34.6868 8.86932 34.6473C9.12611 34.6473 9.28413 35.0226 9.0866 35.2004C8.55327 35.6942 7.54586 35.7139 7.11129 35.0818C6.59771 34.43 6.93352 33.2843 7.7829 33.0868ZM7.60512 34.0547H8.4545C8.39524 33.8769 8.27673 33.7189 8.0792 33.6991C7.86191 33.6596 7.66438 33.8571 7.60512 34.0547ZM12.1088 33.2646C12.4644 32.9485 13.057 33.0078 13.373 33.3436C13.8866 33.8967 13.8668 34.8843 13.2743 35.3584C12.9582 35.6152 12.4841 35.6349 12.1483 35.4176C12.1286 35.6942 12.2076 36.0102 12.1088 36.267C11.9508 36.5633 11.4372 36.4646 11.4372 36.1287C11.4175 35.2596 11.4372 34.3905 11.4372 33.5016C11.4175 33.3041 11.536 33.1065 11.7335 33.067C11.8718 33.067 12.0101 33.146 12.1088 33.2646ZM12.4446 33.7781C12.1483 33.9164 12.1088 34.3115 12.2076 34.588C12.2668 34.8053 12.5039 34.9633 12.7212 34.8646C13.0372 34.7065 13.0767 34.272 12.9385 33.9757C12.8397 33.8176 12.6224 33.6991 12.4446 33.7781ZM14.4397 33.2843C14.7755 33.0078 15.2891 32.9683 15.6249 33.2646C15.7434 33.1065 15.9607 33.0275 16.1385 33.1263C16.3162 33.2053 16.3162 33.4226 16.3162 33.5806V35.0621C16.3162 35.2201 16.3162 35.4176 16.1385 35.4967C15.9607 35.5954 15.7236 35.5164 15.6249 35.3584C15.1508 35.7929 14.3607 35.5164 14.1236 34.9633C13.8668 34.43 13.9656 33.6794 14.4397 33.2843ZM15.0125 33.7979C14.6175 34.0152 14.6372 34.7855 15.1113 34.9041C15.4866 34.9633 15.6644 34.4892 15.5854 34.193C15.5261 33.9164 15.2693 33.6596 15.0125 33.7979ZM20.0101 33.2646C20.3459 32.9683 20.8989 33.0275 21.1952 33.3436C21.4125 33.146 21.7088 33.0275 22.0051 33.0868C22.3607 33.1263 22.6965 33.4028 22.736 33.7781C22.7755 34.1534 22.736 34.5288 22.7557 34.9041C22.7557 35.0818 22.7952 35.2991 22.657 35.4374C22.5187 35.6152 22.2027 35.5954 22.0841 35.3979C21.9854 35.2399 22.0249 35.0621 22.0051 34.8843C22.0051 34.5683 22.0249 34.2325 21.9854 33.9164C21.9459 33.6399 21.4915 33.6004 21.4125 33.8769C21.3533 34.3312 21.4125 34.7855 21.373 35.2399C21.3335 35.4176 21.1557 35.5559 20.9582 35.5362C20.7804 35.5164 20.6422 35.3386 20.6422 35.1609C20.6224 34.746 20.6619 34.351 20.6224 33.9362C20.6027 33.7584 20.4249 33.6201 20.2471 33.6794C20.1088 33.6991 20.0298 33.8374 20.0298 33.9757C20.0101 34.3707 20.0298 34.7658 20.0298 35.1609C20.0298 35.3781 19.8323 35.5757 19.5952 35.5362C19.3977 35.5164 19.2594 35.2991 19.2792 35.1213C19.2792 34.5485 19.2594 33.9757 19.2792 33.4028C19.3582 33.067 19.8323 32.988 20.0101 33.2646Z" fill="#3C2281"/>
<path d="M23.2495 33.4023C23.5063 33.1455 23.9014 33.027 24.2569 33.0862C24.81 33.185 25.2446 33.7381 25.2248 34.2912C25.2248 34.4492 25.0866 34.6072 24.9285 34.5874H23.6446C23.7236 34.785 23.9014 34.9035 24.0989 34.9035C24.3557 34.943 24.573 34.7257 24.81 34.6665C25.0471 34.6072 25.2643 34.9035 25.1458 35.101C25.0471 35.2986 24.8298 35.3973 24.6125 35.4763C24.1779 35.6344 23.6248 35.5949 23.2693 35.2788C22.7359 34.8245 22.7557 33.8961 23.2495 33.4023ZM23.6248 34.0541H24.494C24.4347 33.8763 24.3162 33.6986 24.0989 33.6986C23.8619 33.6591 23.6841 33.8566 23.6248 34.0541ZM26.2322 33.2442C26.6668 32.9282 27.3977 33.0467 27.6347 33.5603C27.773 33.9356 27.694 34.3307 27.7137 34.7257C27.694 34.9628 27.773 35.2393 27.615 35.4368C27.4372 35.6541 27.0224 35.5553 26.9829 35.2788C26.9434 34.8245 27.0026 34.3899 26.9434 33.9356C26.8841 33.6788 26.5088 33.6195 26.3508 33.8368C26.2717 33.9553 26.2915 34.1134 26.2717 34.2516V35.1998C26.2717 35.3776 26.1137 35.5553 25.9359 35.5553C25.7187 35.5751 25.5409 35.3973 25.5409 35.18V33.5208C25.5211 33.3232 25.6594 33.106 25.8767 33.0862C26.015 33.0665 26.1335 33.1455 26.2322 33.2442ZM31.5458 33.0862C31.8816 33.027 32.2569 33.0862 32.494 33.3232C32.6717 33.4813 32.6125 33.7973 32.415 33.8961C32.1384 34.0146 31.8816 33.6195 31.6051 33.7776C31.6051 33.7973 31.5853 33.8566 31.5853 33.8763C31.8816 34.0936 32.2767 34.1134 32.5137 34.3899C32.7705 34.6862 32.6915 35.18 32.3755 35.3973C32.0594 35.6344 31.6051 35.6541 31.2298 35.4961C31.0718 35.4368 30.894 35.3381 30.815 35.18C30.7359 35.0023 30.8545 34.7652 31.0322 34.7257C31.3483 34.6665 31.6051 35.0615 31.9211 34.9035C31.9211 34.8837 31.9409 34.8245 31.9409 34.785C31.6051 34.5479 31.1113 34.5282 30.9137 34.1331C30.7162 33.6591 31.0717 33.1455 31.5458 33.0862ZM34.7261 33.3232C35.0619 33.0072 35.615 32.9677 35.9508 33.264C36.1088 33.0072 36.5631 33.027 36.6224 33.343C36.6816 33.8566 36.6224 34.3702 36.6421 34.8837C36.6224 35.0813 36.6816 35.3183 36.5236 35.4763C36.3458 35.6146 36.0693 35.5751 35.9508 35.3776C35.6347 35.6739 35.1211 35.6541 34.7853 35.3973C34.1532 34.9035 34.1335 33.8368 34.7261 33.3232ZM35.3384 33.7776C35.0816 33.8763 35.0026 34.1924 35.0421 34.4294C35.0619 34.6665 35.2594 34.943 35.5162 34.9035C35.8322 34.8442 35.9113 34.4492 35.8717 34.1924C35.852 33.9356 35.615 33.6788 35.3384 33.7776ZM37.8471 33.2442C38.2619 32.9479 38.9335 33.027 39.21 33.4813C39.3088 33.6591 39.3285 33.8566 39.3285 34.0739V35.1998C39.3285 35.3776 39.1705 35.5553 38.9927 35.5553C38.815 35.5751 38.6174 35.4368 38.6174 35.2393C38.5779 34.8047 38.6372 34.3702 38.5977 33.9356C38.5384 33.6195 38.0051 33.6195 37.9458 33.9553C37.9063 34.3899 37.9458 34.8245 37.9261 35.2591C37.9063 35.4763 37.6693 35.6146 37.4717 35.5553C37.294 35.5158 37.1952 35.3183 37.215 35.1405C37.215 34.5677 37.1952 33.9949 37.215 33.422C37.1952 33.0862 37.6495 32.9874 37.8471 33.2442ZM42.568 33.3628C42.8841 33.027 43.4767 32.9479 43.8322 33.264C43.9903 33.027 44.4446 33.0072 44.5038 33.343C44.5434 33.8961 44.5038 34.4492 44.5236 35.022C44.5236 35.1998 44.5434 35.4368 44.3656 35.5158C44.1878 35.6146 43.9508 35.5356 43.8322 35.3776C43.3977 35.7924 42.6471 35.5751 42.3705 35.0615C42.0742 34.5282 42.1335 33.8171 42.568 33.3628ZM43.2199 33.7776C42.9236 33.9356 42.8841 34.3702 43.0224 34.6467C43.1014 34.864 43.4174 34.9628 43.615 34.8047C43.852 34.5874 43.8717 34.1924 43.7137 33.9356C43.5952 33.7776 43.3779 33.6986 43.2199 33.7776ZM16.7903 33.185C16.968 33.027 17.2643 33.0862 17.3631 33.3035C17.5014 33.6591 17.6199 34.0146 17.7582 34.3702C17.9162 34.0146 18.0347 33.6591 18.173 33.3035C18.2717 33.0665 18.6076 33.027 18.7656 33.185C18.9038 33.3035 18.8841 33.4813 18.8248 33.6393C18.4693 34.5084 18.1335 35.3776 17.7779 36.2467C17.6989 36.464 17.4026 36.5233 17.2248 36.4047C17.1063 36.3257 17.0471 36.1677 17.0866 36.0294C17.1656 35.7726 17.2841 35.5356 17.3829 35.2986C17.1656 34.7257 16.9285 34.1726 16.7113 33.5998C16.6322 33.4615 16.652 33.264 16.7903 33.185ZM45.0372 33.4023C45.0767 33.0665 45.5705 32.9874 45.7483 33.264C45.9063 33.1257 46.1236 33.0467 46.3211 33.1455C46.5384 33.2442 46.6174 33.6195 46.3804 33.7381C46.1829 33.8566 45.8866 33.8763 45.7878 34.1134C45.7483 34.4887 45.7878 34.8837 45.768 35.2591C45.7483 35.4566 45.531 35.6146 45.3335 35.5553C45.1359 35.5158 45.0174 35.3183 45.0372 35.1405V33.4023ZM9.69891 33.8961C10.0545 33.8566 10.41 33.8763 10.7656 33.8961C11.1014 33.9356 11.1014 34.5084 10.7656 34.5479C10.41 34.5479 10.0545 34.5677 9.69891 34.5479C9.40261 34.4492 9.40261 33.9751 9.69891 33.8961ZM2.07422 41.1455C3.33842 39.2294 4.58286 37.3331 5.84706 35.4368C7.0915 37.3529 8.3557 39.2492 9.60014 41.1652H2.13348L2.07422 41.1455ZM46.3804 41.1455C47.6446 39.2492 48.889 37.3331 50.1532 35.4171C51.4174 37.3331 52.6619 39.2294 53.9261 41.1455H46.3804Z" fill="#3C2281"/>
<path d="M13.136 12.3059C13.7879 12.1874 14.4397 12.1874 15.0916 12.2269C15.8422 12.3059 16.573 12.4442 17.2644 12.7405C18.8249 13.3726 20.1088 14.7158 20.6619 16.3158C20.899 16.9676 20.9977 17.659 21.0175 18.3701C21.057 19.1405 20.8595 19.9108 20.7014 20.6614H11.4175C11.4965 21.3133 11.773 21.9454 12.2471 22.3997C12.9977 23.1306 14.1237 23.3281 15.1311 23.2689C15.9014 23.2491 16.6916 23.0713 17.3434 22.617C17.62 22.4392 17.8372 22.1824 18.0743 21.9454C18.173 22.1429 18.2718 22.3207 18.3706 22.5182C18.7854 23.3281 19.2002 24.1577 19.615 24.9676C18.3706 26.0738 16.6718 26.4293 15.0521 26.5084C13.5706 26.5874 12.0298 26.4096 10.7261 25.6985C9.81749 25.2047 9.02737 24.454 8.49403 23.5652C7.6249 22.1232 7.40761 20.4047 7.50638 18.7652C7.60514 17.2442 8.15823 15.7232 9.18539 14.5775C10.1928 13.3923 11.5953 12.5429 13.136 12.3059ZM12.6224 15.98C12.0891 16.3948 11.7533 17.0269 11.5755 17.6787H17.2447C17.1459 17.2047 16.9879 16.7108 16.6718 16.3355C16.2175 15.7627 15.4866 15.4861 14.7953 15.4664C14.0249 15.3874 13.215 15.5059 12.6224 15.98ZM27.8521 12.4837C28.6027 12.1874 29.4126 12.1874 30.2027 12.2269C31.3484 12.3256 32.5138 12.6022 33.4817 13.254C34.3311 13.8071 34.9829 14.6565 35.378 15.5849C35.9113 16.8293 36.0693 18.1923 36.0496 19.5355C36.0496 20.7997 35.8323 22.0837 35.2595 23.2096C34.7656 24.217 33.936 25.0664 32.9681 25.6195C32.02 26.1528 30.9335 26.4294 29.8471 26.4886C29.1755 26.5281 28.4842 26.5084 27.8323 26.3701C27.536 26.3108 27.2397 26.2121 26.9434 26.1133V31.4269H23.2101V12.4837H26.9434V12.9775C27.2397 12.7602 27.536 12.6022 27.8521 12.4837ZM26.9434 16.138V22.7355C27.5163 23.1503 28.2471 23.3084 28.9582 23.2096C29.6693 23.2096 30.42 23.0516 31.0126 22.6368C31.6447 22.2022 31.9607 21.4318 32.099 20.6812C32.2372 19.8121 32.2372 18.9034 32.1187 18.0343C32.0002 17.3429 31.7829 16.6121 31.2298 16.1577C30.6372 15.6837 29.8274 15.5059 29.0767 15.4861C28.2866 15.3676 27.4965 15.5849 26.9434 16.138ZM41.9558 12.2466C42.5089 12.1874 43.0422 12.1874 43.5953 12.2071C44.8397 12.3256 46.0644 12.6812 47.1508 13.2738C46.8348 14.1232 46.5187 14.9923 46.2027 15.8417C46.1434 16.0195 46.0644 16.217 46.0051 16.3948C45.7681 16.1972 45.5311 15.9602 45.2545 15.8022C44.7212 15.4861 44.0891 15.3479 43.4768 15.3084C43.0422 15.2886 42.5484 15.2491 42.1533 15.4664C41.8175 15.6442 41.7187 16.059 41.7977 16.3948C41.8965 16.6713 42.1533 16.8689 42.4101 17.0071C43.1607 17.4417 43.9706 17.7182 44.7607 18.054C45.6693 18.4491 46.5385 19.0022 47.1113 19.8121C47.7632 20.7405 47.9409 21.9454 47.7434 23.0516C47.5854 23.9207 47.1113 24.7108 46.42 25.2639C45.4916 26.0343 44.2669 26.3503 43.0619 26.4491C42.173 26.4886 41.2644 26.4689 40.3953 26.2713C39.5064 26.054 38.6768 25.6195 37.8669 25.1652C38.3409 24.138 38.7755 23.0713 39.2693 22.0442C39.4866 22.2022 39.7039 22.3997 39.9212 22.538C40.7903 23.1503 41.8965 23.4269 42.9434 23.3084C43.299 23.2491 43.7138 23.1503 43.8718 22.775C44.0496 22.2812 43.8718 21.6689 43.4372 21.3726C42.7261 20.8392 41.8768 20.5429 41.0669 20.1676C40.099 19.7133 39.1508 19.101 38.5187 18.1923C37.5508 16.7898 37.6693 14.696 38.9138 13.4911C39.7434 12.78 40.8496 12.3652 41.9558 12.2466Z" fill="#D00A7E"/>
<path d="M15.0911 12.2274C15.98 12.1681 16.8886 12.3064 17.738 12.583C19.3182 13.0965 20.6614 14.3015 21.3528 15.8027C21.7083 16.5928 21.8861 17.4422 21.9256 18.2916C21.9651 19.0817 21.7874 19.8719 21.6096 20.6422H20.7207C20.8985 19.8916 21.0763 19.1212 21.0367 18.3509C21.017 17.6595 20.8985 16.9681 20.6812 16.2965C20.1281 14.6965 18.8639 13.3731 17.2837 12.7212C16.5725 12.4447 15.8219 12.2867 15.0911 12.2274ZM30.2022 12.2274C31.0911 12.1879 31.9997 12.3064 32.8688 12.5435C33.9355 12.8595 34.9232 13.5114 35.5948 14.4002C36.4244 15.5064 36.78 16.9089 36.8985 18.2719C36.9972 19.6151 36.9577 20.978 36.5429 22.262C36.2269 23.2496 35.6738 24.1583 34.9034 24.8496C33.5602 26.0941 31.6441 26.5681 29.8664 26.4694C30.9528 26.3904 32.0392 26.1336 32.9874 25.6002C33.9553 25.0472 34.7849 24.1978 35.2787 23.1904C35.8516 22.0644 36.0688 20.7805 36.0688 19.5163C36.0688 18.1731 35.9306 16.8101 35.3972 15.5657C35.0022 14.6373 34.3503 13.8077 33.5009 13.2348C32.5133 12.6027 31.3479 12.3262 30.2022 12.2274ZM43.5948 12.2274C45.1355 12.1484 46.696 12.5632 48.0392 13.2941C47.6441 14.341 47.2688 15.3681 46.8738 16.4151C46.6367 16.2373 46.4392 16.02 46.1824 15.862C46.4985 15.0126 46.8145 14.1435 47.1306 13.2941C46.0442 12.7015 44.8392 12.3262 43.5948 12.2274ZM26.9429 12.4644H27.8516C27.5355 12.583 27.2195 12.7607 26.9429 12.9385V12.4644ZM42.133 15.5064C42.5479 15.2891 43.0219 15.3286 43.4565 15.3484C43.1997 15.4274 42.8837 15.5064 42.7454 15.783C42.6269 16.0398 42.5874 16.3953 42.7651 16.6323C42.8837 16.7904 43.0417 16.9089 43.1997 17.0274C44.0293 17.5212 44.9577 17.8175 45.8269 18.2126C46.696 18.6274 47.5454 19.1805 48.059 20.0101C48.6318 20.8793 48.7701 21.9854 48.6121 22.9928C48.4738 23.9212 47.9602 24.7904 47.2096 25.3632C46.0442 26.2719 44.4837 26.5484 43.0219 26.4891C44.2071 26.4101 45.4318 26.0941 46.38 25.304C47.0713 24.7509 47.5454 23.9607 47.7034 23.0916C47.9009 21.9854 47.7429 20.7805 47.0713 19.8521C46.4985 19.0422 45.6096 18.4891 44.7207 18.0941C43.9306 17.7583 43.1207 17.4817 42.3701 17.0472C42.1133 16.8891 41.8565 16.7114 41.7577 16.4348C41.7182 16.099 41.817 15.6644 42.133 15.5064ZM12.6219 15.9805C13.2145 15.5064 14.0244 15.3879 14.775 15.4669C14.3207 15.5459 13.8861 15.704 13.5108 15.9805C12.9775 16.3953 12.6614 17.0274 12.4639 17.6793H11.575C11.7528 17.0274 12.0886 16.3953 12.6219 15.9805ZM26.9429 16.1385C27.496 15.6052 28.3059 15.3681 29.0565 15.4867C28.6022 15.5854 28.1676 15.8027 27.8318 16.1385V22.736C28.1676 22.9731 28.5429 23.1114 28.938 23.2101C28.2466 23.3089 27.5158 23.1509 26.9232 22.736C26.9429 20.5435 26.9429 18.3311 26.9429 16.1385ZM11.417 20.6422H12.3059C12.3651 21.0175 12.4639 21.4126 12.6614 21.7484C12.9972 22.3607 13.5701 22.8151 14.2219 23.0323C14.5182 23.1509 14.8343 23.1904 15.1306 23.2496C14.1232 23.3089 12.9972 23.1114 12.2466 22.3805C11.7528 21.9459 11.496 21.2941 11.417 20.6422ZM18.3503 22.499C18.5676 22.341 18.7454 22.1237 18.9627 21.9262C19.4763 22.9336 19.9701 23.941 20.4837 24.9484C19.3972 25.9163 17.9553 26.3114 16.533 26.4496C16.0392 26.4891 15.5256 26.5286 15.0318 26.4891C16.6516 26.4101 18.3503 26.0546 19.5948 24.9484C19.18 24.1385 18.7651 23.3286 18.3503 22.499Z" fill="#A7A8A8"/>
<path d="M39.9211 22.5976C40.0002 22.4198 40.0792 22.2618 40.1582 22.084C40.9483 22.7753 41.8964 23.3087 42.9631 23.3482C41.8964 23.4865 40.7903 23.2099 39.9211 22.5976ZM26.9434 26.1136C27.2397 26.2124 27.536 26.3111 27.8322 26.3704V31.4272H26.9434V26.1136Z" fill="#A7A8A8"/>
<path d="M13.6695 49.9753C13.5708 49.6395 13.4325 49.363 13.235 49.126C13.0374 48.8889 12.8004 48.7111 12.5239 48.5729C12.2473 48.4544 11.9115 48.3753 11.556 48.3753C11.3584 48.3753 11.1609 48.3951 10.9831 48.4346L10.5683 48.5531V46.084L9.00781 46.3408V53.4519L9.06707 53.4716C9.20534 53.5111 9.34361 53.5506 9.50164 53.5902C9.65966 53.6297 9.83744 53.6494 10.035 53.6889C10.2128 53.7087 10.4103 53.7284 10.5881 53.7482C10.7856 53.7679 10.9634 53.7679 11.1411 53.7679C11.556 53.7679 11.951 53.7087 12.2671 53.5704C12.6029 53.4519 12.8794 53.2544 13.1165 53.0173C13.3535 52.7803 13.5313 52.5037 13.6498 52.1679C13.7683 51.8321 13.8276 51.4568 13.8276 51.0618C13.8078 50.6667 13.7683 50.3111 13.6695 49.9753ZM12.2276 51.042C12.2276 51.4568 12.1288 51.8124 11.951 52.0494C11.7732 52.3062 11.4967 52.4247 11.1411 52.4247C11.0226 52.4247 10.9041 52.4247 10.7856 52.405C10.7066 52.405 10.6473 52.3852 10.5881 52.3852V49.9161C10.6671 49.8766 10.7658 49.8371 10.8844 49.7976C11.0226 49.7581 11.1609 49.7383 11.2992 49.7383C11.9115 49.7383 12.2276 50.1531 12.2276 51.042Z" fill="#852164"/>
<path d="M17.4021 48.4941L17.3824 48.5534C17.3231 48.8102 17.2441 49.067 17.1651 49.3633C17.0861 49.6596 17.0071 49.9361 16.9083 50.2324C16.8293 50.5287 16.7305 50.8053 16.6515 51.1016C16.5923 51.2991 16.533 51.4966 16.454 51.6744C16.3947 51.4966 16.3157 51.2991 16.2367 51.1016C16.1379 50.825 16.0392 50.5287 15.9404 50.2324C15.8417 49.9361 15.7626 49.6398 15.6639 49.3633C15.5849 49.067 15.5058 48.8102 15.4466 48.5534L15.4268 48.4941H13.7676L13.8268 48.5929C14.1034 49.5806 14.4194 50.4694 14.7355 51.2596C15.0515 52.0299 15.3676 52.7411 15.7034 53.3732C15.6046 53.5904 15.5059 53.7682 15.3873 53.8867C15.2688 54.0052 15.091 54.0645 14.854 54.0645C14.7355 54.0645 14.617 54.0645 14.4984 54.0448C14.3997 54.025 14.2614 53.9855 14.1231 53.946L14.0441 53.9262L13.7676 55.2102L13.8268 55.2299C13.9454 55.2892 14.1034 55.3287 14.3009 55.3682C14.4984 55.4077 14.7157 55.4275 14.933 55.4275C15.2096 55.4275 15.4466 55.388 15.6639 55.3287C15.8812 55.2695 16.0589 55.1707 16.2367 55.0324C16.3947 54.8941 16.5528 54.7361 16.691 54.5188C16.8293 54.3213 16.9676 54.0645 17.1058 53.788C17.4812 52.9978 17.817 52.1682 18.133 51.3188C18.4491 50.4694 18.7454 49.5608 19.0417 48.5929L19.0614 48.4941H17.4021Z" fill="#852164"/>
<path fill-rule="evenodd" clip-rule="evenodd" d="M21.0371 47.7636C21.0371 50.45 24.2174 50.3117 24.6914 50.4895C25.3235 50.7068 25.2643 51.8327 23.842 51.8327C23.0914 51.8327 22.4593 51.7339 21.7482 51.5167C21.5704 51.4771 21.3927 51.3784 21.2149 51.3389V53.3537C21.7482 53.6302 23.5853 53.6697 24.3359 53.6697C26.2914 53.6697 28.089 52.3265 27.5951 50.3117C27.1013 48.1191 24.2371 48.3562 23.842 48.1191C23.3482 47.9018 23.3482 47.2697 23.8816 47.0525C24.5927 46.7364 26.0346 47.0525 26.7457 47.2697C26.963 47.3685 27.2001 47.4475 27.3779 47.487V45.571C27.0618 45.4722 26.884 45.3932 26.2519 45.2549C25.363 45.0772 25.0075 45.0771 24.0988 45.0771C22.5186 45.0969 21.0371 46.1636 21.0371 47.7636Z" fill="#852164"/>
<path fill-rule="evenodd" clip-rule="evenodd" d="M28.2275 45.5312V53.5708H30.5584V51.1609C30.5979 51.2596 30.5584 51.2004 30.5979 51.2992L30.8152 51.6942C30.914 51.872 30.993 52.0498 31.0917 52.2671C31.1905 52.4843 31.4473 53.2942 31.4473 53.5708H34.2522C34.2127 53.472 34.1535 53.2942 34.114 53.1757L33.5806 51.9708C32.4547 49.6991 32.6917 50.9041 33.6794 48.988C33.8572 48.7115 34.351 47.6843 34.3905 47.3288H31.7633C31.6646 47.7831 30.8349 49.2448 30.5584 49.4819V45.0967C30.1041 45.0967 28.6028 45.5312 28.2275 45.5312Z" fill="#852065"/>
<path fill-rule="evenodd" clip-rule="evenodd" d="M42.1338 45.492V53.571H44.3659V45.0771C44.0103 45.0969 42.6276 45.4525 42.1338 45.492Z" fill="#862064"/>
<path fill-rule="evenodd" clip-rule="evenodd" d="M45.333 45.492V53.571H47.5651V45.0771C47.3083 45.0969 45.6096 45.492 45.333 45.492Z" fill="#852164"/>
<path fill-rule="evenodd" clip-rule="evenodd" d="M34.667 49.9954V53.5707H36.8991V50.8843C36.8991 49.6399 37.0769 49.1461 38.3213 49.1461V47.2695C37.9263 47.2695 38.2818 47.23 37.6102 47.2695C36.9386 47.3683 36.4448 47.3683 35.7337 47.8028C35.1213 48.2177 34.667 48.9683 34.667 49.9954Z" fill="#862164"/>
<path fill-rule="evenodd" clip-rule="evenodd" d="M38.9922 53.5706H41.2243V47.3682H38.9922V53.5706Z" fill="#852164"/>
<path fill-rule="evenodd" clip-rule="evenodd" d="M39.0518 45.6299C39.0518 45.9854 39.0913 46.2027 39.3678 46.4792C40.3555 47.4669 41.916 45.9854 40.8888 44.9187C40.1974 44.1879 39.0518 44.82 39.0518 45.6299Z" fill="#862165"/>
</svg>
