<svg width="54" height="32" viewBox="0 0 54 32" fill="none" xmlns="http://www.w3.org/2000/svg">
<g clip-path="url(#clip0_646_40981)">
<path d="M37.7869 32C46.7339 32 53.9869 24.8366 53.9869 16C53.9869 7.16344 46.7339 0 37.7869 0C28.8399 0 21.5869 7.16344 21.5869 16C21.5869 24.8366 28.8399 32 37.7869 32Z" fill="#E41D2C"/>
<path fill-rule="evenodd" clip-rule="evenodd" d="M16.2137 0C20.9454 0 25.1958 1.9802 28.1632 5.14851H25.7572L25.0355 6.09901H28.9652L29.6869 7.0495H24.3137L23.6721 8H30.2483C30.4087 8.31683 30.6493 8.63366 30.8097 9.0297H23.1909L22.7097 9.90099H31.2107C31.3711 10.2178 31.4513 10.5347 31.6117 10.9307H22.3889L22.1483 11.802H31.8523C31.9325 12.1188 32.0127 12.4356 32.0929 12.8317H21.8275L21.6671 13.703H32.2533C32.3335 14.0198 32.3335 14.3366 32.3335 14.6535H21.6671L21.5869 15.5248H32.4137V16.4752H21.5067L21.5869 17.3465H32.3335C32.3335 17.6634 32.3335 17.9802 32.2533 18.297H21.7473L21.9077 19.1683H32.0929L31.8523 20.1188H22.1483L22.4691 20.9901H31.6117C31.4513 21.3861 31.3711 21.7822 31.2107 22.099H22.7899L23.2711 22.9703H30.8097C30.5691 23.3663 30.4087 23.7624 30.1681 24.0792H23.8325L24.3939 25.0297H29.6067C29.3661 25.3465 29.1256 25.7426 28.8048 26.0594H25.1157L25.8374 26.9307H28.083C25.1157 30.0198 20.8652 32 16.2137 32C7.23149 32 0.0136719 24.8713 0.0136719 16C0.0136719 7.12871 7.23149 0 16.2137 0Z" fill="#0082C3"/>
<path fill-rule="evenodd" clip-rule="evenodd" d="M34.2578 14.6533H34.1776C33.2954 14.5741 32.3331 14.2572 31.5311 14.7325C31.0499 15.0493 31.1301 15.4453 31.5311 15.8414C32.3331 16.3166 33.0548 16.1582 33.7766 16.9503C34.8994 18.5345 33.8568 20.3562 32.1727 20.9107C30.9697 21.1483 29.0449 21.0691 27.842 20.6731L28.1628 19.0097C29.2053 19.2473 29.8469 19.4057 30.8895 19.3265C31.9321 19.1681 32.1727 18.2176 31.0499 17.7424C30.1677 17.4255 29.5261 17.1879 29.0449 16.475C28.644 15.6038 28.8043 14.3364 29.3657 13.6236C30.4885 12.5147 33.0548 12.6731 34.4984 12.9107H34.6588L34.2578 14.6533ZM23.2707 16.079H25.9974C26.0776 15.2869 25.9172 14.6533 25.1152 14.4948C23.9925 14.3364 23.4311 15.0493 23.2707 16.079ZM22.9499 17.5047V17.6632C22.8697 19.7226 26.238 19.5642 27.6816 18.7721L27.3608 20.5939C25.5162 21.5444 22.4687 20.9899 21.3459 19.5642C20.2232 17.98 20.6242 15.4453 21.8271 14.0196L21.9875 13.8612L22.1479 13.7028L22.3083 13.5444C23.1905 12.9107 24.0727 12.7523 25.1152 12.7523C28.1628 12.9899 28.4034 14.8117 27.9222 17.5047H22.9499Z" fill="white"/>
<path fill-rule="evenodd" clip-rule="evenodd" d="M19.9827 19.327L19.6619 20.9904H17.7372L17.8174 20.832V20.4359L17.8976 20.3567V20.1191L17.8174 20.2775C16.7748 21.228 15.0104 21.4656 13.8075 20.5943C12.4441 19.327 13.0857 17.3468 14.5292 16.3963L14.7698 16.3171C15.8926 15.8419 17.1758 15.9211 18.3787 15.9211L18.4589 15.8419C18.6193 15.129 18.2183 14.6537 17.4966 14.5745C16.7748 14.5745 14.85 14.6537 14.2886 14.9706L14.85 13.228C15.8124 12.7528 17.5768 12.7528 18.6995 12.9112C19.9827 13.228 21.0253 13.8617 20.7847 15.3666L19.9827 19.327ZM18.1381 17.3468C18.1381 17.2676 18.1381 17.2676 17.9777 17.2676C17.3362 17.1884 16.454 17.3468 15.8926 17.7429C15.3312 18.2181 15.1708 19.1686 15.9728 19.327C16.6946 19.4062 17.4164 19.2478 17.8174 18.6141C18.0579 18.2181 18.0579 17.8221 18.1381 17.3468ZM38.749 20.9904H40.9144L41.6362 16.7132C41.7164 16.3963 41.7966 16.0795 41.957 15.7627C42.3579 15.129 43.2401 14.8914 43.9619 14.9706H44.0421V14.8914L44.1223 14.733V14.5745L44.2025 14.3369C44.2827 14.0201 44.3629 13.7033 44.5233 13.4656L44.6035 13.3072L44.6837 13.1488V13.0696L44.7639 12.9904L44.8441 12.9112H44.7639V12.832C43.6411 12.6735 42.8391 13.3072 42.1976 14.1785L42.3579 12.9112H40.1926L38.749 20.9904ZM51.3401 20.5943H51.9817V20.6736H51.7411V21.228H51.5807V20.6736H51.3401V20.5943Z" fill="white"/>
<path d="M51.3408 20.5938H51.9824V20.673H51.7418V21.2274H51.5814V20.673H51.3408V20.5938Z" stroke="white" stroke-width="0.474189"/>
<path fill-rule="evenodd" clip-rule="evenodd" d="M52.0625 20.5938H52.2229L52.4635 21.069L52.7041 20.5938H52.8645V21.2274H52.7041V20.7522L52.5437 21.2274H52.3833L52.2229 20.7522V21.2274H52.0625V20.5938Z" fill="white"/>
<path d="M52.0625 20.5938H52.2229L52.4635 21.069L52.7041 20.5938H52.8645V21.2274H52.7041V20.7522L52.5437 21.2274H52.3833L52.2229 20.7522V21.2274H52.0625V20.5938Z" stroke="white" stroke-width="0.474189"/>
<path fill-rule="evenodd" clip-rule="evenodd" d="M50.7793 13.6235C52.3833 14.8908 52.5437 17.2671 51.6615 19.0097C50.2179 21.8611 45.406 21.9404 44.0427 19.0097C43.2407 16.871 43.9625 14.0988 46.208 13.1483C47.6516 12.5938 49.4961 12.673 50.7793 13.6235ZM46.4486 17.98C46.8496 19.4849 48.5338 19.2473 49.2555 17.98C49.4961 17.2671 49.6565 16.475 49.5763 15.6829C49.1754 14.0988 47.4912 14.4156 46.7694 15.6829C46.4486 16.3958 46.2882 17.1879 46.4486 17.98ZM36.0229 11.0889H38.1882L37.7872 12.9106H39.1506L38.8298 14.6532L37.4664 14.574L36.7447 18.772C36.7447 19.1681 36.8249 19.2473 37.1456 19.3265C37.5466 19.4057 38.0278 19.4057 38.3486 19.2473H38.4288L38.1882 20.673C37.5466 21.0691 36.4239 21.0691 35.7021 20.9899C34.6595 20.7522 34.4189 20.3562 34.5793 19.3265L36.0229 11.0889ZM3.86347 20.9899H1.77832L3.54268 11.0889H7.23179L7.55258 17.0295L10.0387 11.0889H13.808L12.0437 20.9899H9.95852L11.2417 13.6235H11.1615L8.11396 20.9899H5.70802C5.54763 18.5344 5.46743 16.079 5.30703 13.6235H5.22684L3.86347 20.9899Z" fill="white"/>
</g>
<defs>
<clipPath id="clip0_646_40981">
<rect width="54" height="32" fill="white"/>
</clipPath>
</defs>
</svg>
