<svg width="86" height="16" viewBox="0 0 86 16" fill="none" xmlns="http://www.w3.org/2000/svg">
<g clip-path="url(#clip0_646_40993)">
<path fill-rule="evenodd" clip-rule="evenodd" d="M8.92285 14.294H15.5141V1.71484H8.92285V14.294Z" fill="#FF5F00"/>
<path fill-rule="evenodd" clip-rule="evenodd" d="M9.34143 8.00392C9.34143 5.45192 10.4665 3.17947 12.2186 1.71436C10.8924 0.603816 9.2521 0.00114221 7.56326 0.00391578C3.40345 0.00391578 0.03125 3.58569 0.03125 8.00392C0.03125 12.4221 3.40345 16.0039 7.56347 16.0039C9.25231 16.0067 10.8926 15.404 12.2188 14.2935C10.4668 12.8286 9.34143 10.5557 9.34143 8.00392Z" fill="#EB001B"/>
<path fill-rule="evenodd" clip-rule="evenodd" d="M24.1708 12.9608V12.6504H24.0944L24.0065 12.8637L23.9188 12.6504H23.8425V12.9608H23.8962V12.7264L23.9787 12.9282H24.0346L24.117 12.7257V12.9606L24.1708 12.9608ZM23.6874 12.9608V12.7031H23.7851V12.6508H23.5361V12.7033H23.6338V12.9608H23.6874Z" fill="white"/>
<path fill-rule="evenodd" clip-rule="evenodd" d="M24.4065 8.00392C24.4065 12.4221 21.0339 16.0039 16.8738 16.0039C15.1851 16.0067 13.5448 15.404 12.2188 14.2935C13.9708 12.8286 15.0959 10.5557 15.0959 8.00392C15.0959 5.45192 13.9708 3.17947 12.2188 1.71436C13.5449 0.603785 15.1852 0.00110764 16.874 0.00391602C21.0341 0.00391602 24.4065 3.58569 24.4065 8.00392Z" fill="#F79E1B"/>
<path fill-rule="evenodd" clip-rule="evenodd" d="M39.4507 8.03832C39.4507 7.10321 40.0271 6.33543 40.9704 6.33543C41.8716 6.33543 42.4795 7.0701 42.4795 8.03832C42.4795 9.00654 41.8716 9.74121 40.9704 9.74121C40.0271 9.74121 39.4507 8.97343 39.4507 8.03832ZM43.5067 8.03832V5.3781H42.4165V6.02366C42.0706 5.54521 41.5467 5.24454 40.834 5.24454C39.4295 5.24454 38.3293 6.41343 38.3293 8.03832C38.3293 9.66343 39.4295 10.8321 40.834 10.8321C41.5467 10.8321 42.0706 10.5314 42.4165 10.053V10.6985H43.5067V8.03832ZM80.3139 8.03832C80.3139 7.10321 80.8903 6.33543 81.8336 6.33543C82.7348 6.33543 83.3429 7.0701 83.3429 8.03832C83.3429 9.00654 82.7348 9.74121 81.8336 9.74121C80.8903 9.74121 80.3139 8.97343 80.3139 8.03832ZM85.5891 10.4459V10.5294H85.6618C85.6757 10.5302 85.6895 10.5267 85.7015 10.5192C85.7113 10.5121 85.7162 10.5014 85.7162 10.4872C85.7165 10.4811 85.7153 10.475 85.7128 10.4696C85.7102 10.4641 85.7063 10.4595 85.7015 10.4561C85.6895 10.4486 85.6757 10.4451 85.6618 10.4459H85.5891ZM85.6626 10.3872C85.7003 10.3872 85.7296 10.3961 85.7505 10.4141C85.7706 10.4319 85.7808 10.4563 85.7808 10.4872C85.7812 10.4991 85.7792 10.511 85.775 10.5221C85.7707 10.5331 85.7644 10.5431 85.7563 10.5514C85.7369 10.5696 85.7124 10.5805 85.6867 10.5825L85.7833 10.7008H85.7076L85.618 10.5832H85.5891V10.7008H85.526V10.3872H85.6626ZM85.6438 10.8083C85.6761 10.8086 85.7082 10.8019 85.738 10.7887C85.7678 10.7755 85.7949 10.756 85.8174 10.7314C85.8403 10.7069 85.8584 10.6779 85.8708 10.6459C85.8831 10.614 85.8893 10.5797 85.8892 10.5452C85.8893 10.4755 85.8635 10.4086 85.8174 10.359C85.7946 10.3348 85.7676 10.3155 85.7378 10.3025C85.708 10.2894 85.676 10.2827 85.6438 10.2828C85.5949 10.2823 85.547 10.2972 85.5062 10.3257C85.4653 10.3541 85.4333 10.3948 85.4142 10.4425C85.4016 10.4751 85.3952 10.51 85.3954 10.5452C85.3952 10.6148 85.4208 10.6818 85.4667 10.7314C85.4891 10.755 85.5155 10.7739 85.5458 10.7879C85.5762 10.8014 85.609 10.8083 85.6438 10.8083ZM85.6438 10.2074C85.6885 10.2074 85.7304 10.2163 85.7695 10.2339C85.847 10.2677 85.9088 10.3324 85.9419 10.4141C85.9587 10.455 85.9673 10.4988 85.9673 10.5452C85.9673 10.5917 85.9589 10.6352 85.9422 10.6761C85.9083 10.7572 85.8466 10.8215 85.7695 10.8559C85.7299 10.8739 85.6871 10.8831 85.644 10.8828C85.6011 10.8833 85.5585 10.8747 85.5187 10.8576C85.4789 10.8405 85.4428 10.8151 85.4123 10.783C85.3832 10.7523 85.3598 10.716 85.3433 10.6761C85.3264 10.6348 85.3178 10.5902 85.3182 10.5452C85.3182 10.4988 85.3265 10.455 85.3433 10.4141C85.3763 10.3324 85.4381 10.2677 85.5155 10.2339C85.5562 10.2161 85.5998 10.2071 85.6438 10.2074ZM84.3699 8.03832V3.24121H83.2799V6.02366C82.9342 5.54521 82.4101 5.24454 81.6974 5.24454C80.2929 5.24454 79.1927 6.41343 79.1927 8.03832C79.1927 9.66343 80.2929 10.8321 81.6974 10.8321C82.4101 10.8321 82.9342 10.5314 83.2799 10.053V10.6985H84.3701V8.03832H84.3699ZM57.0263 6.27966C57.7287 6.27966 58.1792 6.74721 58.2945 7.57077H55.6957C55.8108 6.80277 56.2508 6.27966 57.0265 6.27966H57.0263ZM57.0474 5.24454C55.5802 5.24454 54.5532 6.37988 54.5532 8.03832C54.5532 9.73032 55.622 10.8321 57.1206 10.8321C57.8754 10.8321 58.5669 10.6317 59.175 10.0863L58.6404 9.22921C58.2211 9.58543 57.6866 9.78588 57.1836 9.78588C56.4814 9.78588 55.8424 9.44077 55.6848 8.48343H59.4054C59.4159 8.33877 59.4263 8.19432 59.4263 8.03832C59.4159 6.37988 58.4519 5.24454 57.0474 5.24454ZM70.2002 8.03832C70.2002 7.10321 70.7766 6.33543 71.7201 6.33543C72.6211 6.33543 73.2292 7.0701 73.2292 8.03832C73.2292 9.00654 72.6211 9.74121 71.7201 9.74121C70.7766 9.74121 70.2002 8.97343 70.2002 8.03832ZM74.2562 8.03832V5.3781H73.1662V6.02366C72.8206 5.54521 72.2966 5.24454 71.5835 5.24454C70.1795 5.24454 69.079 6.41343 69.079 8.03832C69.079 9.66343 70.1792 10.8321 71.5837 10.8321C72.2966 10.8321 72.8206 10.5314 73.1662 10.053V10.6985H74.2564V8.03832H74.2562ZM64.0483 8.03832C64.0483 9.65232 65.1067 10.8321 66.7208 10.8321C67.4754 10.8321 67.9784 10.6539 68.5233 10.1974L67.9995 9.26254C67.5907 9.57454 67.1611 9.74121 66.6897 9.74121C65.8196 9.73032 65.1802 9.06232 65.1802 8.03832C65.1802 7.01432 65.8196 6.34654 66.6894 6.33543C67.1611 6.33543 67.5907 6.50232 67.9995 6.8141L68.5233 5.87899C67.9784 5.42254 67.4754 5.24454 66.7208 5.24454C65.1067 5.24454 64.0483 6.42432 64.0483 8.03832ZM78.0921 5.24454C77.4633 5.24454 77.0544 5.55632 76.7717 6.02366V5.3781H75.692V10.6985H76.7822V7.71543C76.7822 6.83632 77.1383 6.34654 77.851 6.34654C78.0712 6.34654 78.3017 6.37988 78.5321 6.4801L78.8678 5.38943C78.6267 5.28899 78.3122 5.24454 78.0921 5.24454ZM48.8935 5.80121C48.3694 5.43388 47.6464 5.24454 46.8498 5.24454C45.5818 5.24454 44.7643 5.8901 44.7643 6.94743C44.7643 7.81588 45.3721 8.3501 46.4935 8.51699L47.007 8.59477C47.6044 8.68388 47.8873 8.85077 47.8873 9.15121C47.8873 9.56321 47.4891 9.79699 46.745 9.79699C45.9904 9.79699 45.4456 9.54077 45.0785 9.24054L44.5651 10.1419C45.1625 10.6094 45.917 10.8321 46.7349 10.8321C48.1808 10.8321 49.0193 10.1085 49.0193 9.09566C49.0193 8.16077 48.3589 7.67099 47.2689 7.5041L46.7554 7.4261C46.2838 7.35943 45.9067 7.25921 45.9067 6.90321C45.9067 6.51343 46.2629 6.27966 46.8603 6.27966C47.4997 6.27966 48.1181 6.53588 48.4219 6.7361L48.8935 5.80121ZM62.9477 5.24454C62.3189 5.24454 61.9103 5.55632 61.6274 6.02366V5.3781H60.5477V10.6985H61.6378V7.71543C61.6378 6.83632 61.994 6.34654 62.7071 6.34654C62.9268 6.34654 63.1576 6.37988 63.388 6.4801L63.7234 5.38943C63.4823 5.28899 63.1678 5.24454 62.9477 5.24454ZM53.6516 5.3781H51.87V3.76432H50.7696V5.3781H49.7529V6.43566H50.7698V8.8621C50.7698 10.0974 51.2201 10.8321 52.5093 10.8321C52.9809 10.8321 53.5258 10.6763 53.8717 10.4201L53.5574 9.42966C53.2324 9.6301 52.8761 9.73032 52.5932 9.73032C52.0481 9.73032 51.87 9.37388 51.87 8.83966V6.43566H53.6516V5.3781ZM37.3651 10.6985V7.35943C37.3651 6.10166 36.6104 5.25588 35.3947 5.24454C34.7554 5.23343 34.0952 5.44499 33.6341 6.19077C33.2882 5.60077 32.7431 5.24454 31.9781 5.24454C31.4435 5.24454 30.9195 5.41143 30.5109 6.03477V5.3781H29.4209V10.6985H30.5215V7.74899C30.5215 6.82521 31.0034 6.33543 31.7477 6.33543C32.4707 6.33543 32.8375 6.83632 32.8375 7.73788V10.6985H33.9381V7.74899C33.9381 6.82521 34.4411 6.33543 35.1643 6.33543C35.9081 6.33543 36.2645 6.83632 36.2645 7.73788V10.6985H37.3651Z" fill="white"/>
</g>
<defs>
<clipPath id="clip0_646_40993">
<rect width="86" height="16" fill="white"/>
</clipPath>
</defs>
</svg>
