<svg width="92" height="44" viewBox="0 0 92 44" fill="none" xmlns="http://www.w3.org/2000/svg">
<g clip-path="url(#clip0_646_41119)">
<path fill-rule="evenodd" clip-rule="evenodd" d="M79.5403 32.4125H79.4825V32.1636L79.3915 32.3817H79.3382L79.2473 32.1636V32.4101H79.1982V32.107H79.274L79.3626 32.3252L79.4516 32.107H79.5269L79.5403 32.4125ZM79.1582 32.1548H79.0583V32.4125H79.0094V32.1548H78.9095V32.109H79.1582V32.1548ZM42.5951 19.449C42.5951 18.5305 43.2059 17.7776 44.2076 17.7776C45.1649 17.7776 45.809 18.4998 45.809 19.449C45.809 20.398 45.1649 21.1202 44.2076 21.1202C43.1926 21.1158 42.5818 20.3695 42.5818 19.451L42.5951 19.449ZM46.8995 19.449V16.831H45.7224V17.4659C45.3221 16.9584 44.6963 16.6728 44.0433 16.6999C42.5529 16.6999 41.378 17.8477 41.378 19.4425C41.378 21.0371 42.5463 22.1848 44.0433 22.1848C44.6963 22.2119 45.3221 21.9265 45.7224 21.4188V22.0517H46.8796L46.8995 19.449ZM85.968 19.449C85.968 18.5305 86.5788 17.7776 87.5805 17.7776C88.5378 17.7776 89.1819 18.4998 89.1819 19.449C89.1819 20.398 88.5378 21.1202 87.5805 21.1202C86.5788 21.1202 85.968 20.3653 85.968 19.449ZM91.5673 21.8118V21.8947H91.6451C91.659 21.8986 91.6735 21.8986 91.6873 21.8947C91.6975 21.8877 91.7035 21.8761 91.7028 21.8639C91.7035 21.8519 91.6975 21.8403 91.6873 21.8336C91.6735 21.8297 91.659 21.8297 91.6451 21.8336L91.5673 21.8118ZM91.6451 21.7548C91.6784 21.7526 91.7115 21.762 91.7383 21.7812C91.7608 21.7985 91.773 21.8253 91.7717 21.8532C91.7725 21.877 91.7628 21.8999 91.745 21.9165C91.7246 21.9342 91.6988 21.9451 91.6717 21.947L91.7739 22.0627H91.6941L91.5984 21.947H91.5673V22.0627H91.5009V21.7548H91.6451ZM91.6251 22.1693C91.6602 22.17 91.695 22.1632 91.7272 22.1497C91.7579 22.1368 91.7859 22.1183 91.8094 22.0952C91.9122 21.9939 91.9122 21.8301 91.8094 21.7289C91.7859 21.7055 91.7581 21.687 91.7272 21.6743C91.695 21.6608 91.6602 21.654 91.6251 21.6545C91.5893 21.654 91.5538 21.6608 91.5207 21.6743C91.3865 21.7306 91.3241 21.8831 91.3814 22.0149C91.3945 22.045 91.413 22.0723 91.4365 22.0952C91.4607 22.1185 91.4894 22.1371 91.5207 22.1497C91.5502 22.1628 91.5817 22.17 91.614 22.1717L91.6251 22.1693ZM91.6251 21.5805C91.6708 21.5803 91.7161 21.5892 91.7583 21.6067C91.799 21.6235 91.8358 21.6481 91.8672 21.6785C91.8983 21.7086 91.9231 21.7441 91.9405 21.7832C91.9764 21.8654 91.9764 21.9586 91.9405 22.0406C91.9231 22.0799 91.8983 22.1155 91.8672 22.1453C91.8356 22.1759 91.7988 22.2003 91.7583 22.2176C91.7161 22.2352 91.6708 22.2442 91.6251 22.2437C91.4867 22.2453 91.3608 22.1654 91.3055 22.0406C91.2695 21.9586 91.2695 21.8654 91.3055 21.7832C91.3401 21.7031 91.4054 21.6398 91.4874 21.6067C91.5276 21.5903 91.5704 21.5814 91.614 21.5805H91.6251ZM90.2724 19.451V14.7432H89.1153V17.4744C88.715 16.9672 88.0891 16.6818 87.4361 16.7088C85.9458 16.7088 84.7709 17.8562 84.7709 19.451C84.7709 21.0458 85.9394 22.1936 87.4361 22.1936C88.0891 22.2204 88.715 21.9352 89.1153 21.4276V22.0603H90.2724V19.451ZM61.2478 17.7255C61.9939 17.7255 62.4714 18.1834 62.5936 18.9931H59.8239C59.9461 18.238 60.4125 17.7255 61.2365 17.7255H61.2478ZM61.2698 16.7088C59.7151 16.7088 58.6223 17.8235 58.6223 19.451C58.6223 21.1114 59.7575 22.1936 61.3476 22.1936C62.1416 22.2208 62.9181 21.9599 63.5286 21.4603L62.9623 20.6182C62.5205 20.9655 61.9732 21.1575 61.4075 21.1636C60.6612 21.1636 59.9838 20.8257 59.8172 19.8854H63.7663C63.7774 19.7435 63.7885 19.6017 63.7885 19.449C63.7885 17.8215 62.7535 16.7067 61.2632 16.7067L61.2698 16.7088ZM75.2227 19.4534C75.2227 18.5349 75.8335 17.782 76.835 17.782C77.7923 17.782 78.4364 18.5044 78.4364 19.4534C78.4364 20.4024 77.7923 21.1245 76.835 21.1245C75.8335 21.1245 75.2227 20.3695 75.2227 19.4534ZM79.5269 19.4534V16.8354H78.372V17.4702C77.9718 16.9628 77.3459 16.6772 76.6931 16.7045C75.2028 16.7045 74.0278 17.852 74.0278 19.4466C74.0278 21.0414 75.1959 22.1892 76.6931 22.1892C77.3459 22.2162 77.9718 21.9309 78.372 21.4232V22.0559H79.5292L79.5269 19.4534ZM68.6926 19.4534C68.6926 21.0371 69.8167 22.1955 71.5291 22.1955C72.2234 22.2293 72.9055 22.0068 73.4412 21.5718L72.886 20.6533C72.4828 20.952 71.9918 21.1141 71.4867 21.1158C70.5627 21.1158 69.8853 20.4482 69.8853 19.4447C69.8853 18.4409 70.565 17.7844 71.4867 17.7733C71.9896 17.7787 72.4771 17.9432 72.8771 18.2423L73.4324 17.3239C72.8966 16.8888 72.2145 16.6663 71.5202 16.6999C69.8078 16.6999 68.6837 17.8586 68.6837 19.4423L68.6926 19.4534ZM83.6004 16.7108C83.0256 16.6944 82.4878 16.9883 82.1991 17.4768V16.8397H81.053V22.0627H82.2102V19.1349C82.2102 18.2622 82.5878 17.7907 83.3449 17.7907C83.5928 17.7872 83.8389 17.8317 84.0692 17.9219L84.4244 16.8504C84.1601 16.7577 83.8813 16.7097 83.6004 16.7088V16.7108ZM52.6077 17.2562C51.9525 16.874 51.1993 16.6846 50.4379 16.7108C49.0917 16.7108 48.2169 17.3437 48.2169 18.382C48.2169 19.2352 48.8607 19.7588 50.0512 19.9224L50.5956 19.9988C51.2284 20.0861 51.5307 20.2497 51.5307 20.5442C51.5307 20.9478 51.1085 21.1769 50.318 21.1769C49.6801 21.1968 49.0538 21.0045 48.5411 20.6315L47.9968 21.5172C48.6708 21.98 49.478 22.2178 50.3002 22.1955C51.8347 22.1955 52.7256 21.4845 52.7256 20.4916C52.7256 19.5732 52.0235 19.0934 50.8686 18.9298L50.3244 18.8534C49.8247 18.7878 49.4227 18.6898 49.4227 18.3407C49.4227 17.9589 49.8005 17.7275 50.4355 17.7275C51.0176 17.736 51.5878 17.89 52.0924 18.1747L52.6077 17.2562ZM67.5223 16.7088C66.9475 16.6923 66.4096 16.9861 66.1206 17.4744V16.8397H64.9745V22.0627H66.1317V19.1349C66.1317 18.2622 66.5093 17.7907 67.2667 17.7907C67.5143 17.7872 67.7606 17.8317 67.9907 17.9219L68.3463 16.8504C68.0816 16.7577 67.8031 16.7097 67.5223 16.7088ZM57.6539 16.8397H55.7638V15.2556H54.6066V16.8397H53.5272V17.878H54.6066V20.2604C54.6066 21.4734 55.0844 22.1955 56.4523 22.1955C56.9634 22.1973 57.4645 22.0574 57.8985 21.7919L57.5653 20.8189C57.2546 21.0006 56.9023 21.1021 56.5412 21.1134C55.9639 21.1134 55.7727 20.7643 55.7727 20.2407V17.878H57.6628L57.6539 16.8397ZM40.3674 22.0627V18.7902C40.3674 17.5551 39.5658 16.7239 38.2752 16.7132C37.5267 16.6656 36.811 17.0217 36.4073 17.6424C36.0392 17.04 35.3651 16.6833 34.6504 16.7132C34.0287 16.6835 33.4377 16.9789 33.0956 17.4899V16.8354H31.9385V22.0583H33.1068V19.1676C33.1068 18.2598 33.6176 17.78 34.4083 17.78C35.199 17.78 35.5655 18.2709 35.5655 19.1567V22.0627H36.7337V19.1676C36.7337 18.2598 37.2668 17.78 38.0353 17.78C38.8038 17.78 39.2036 18.2709 39.2036 19.1567V22.0627H40.3674ZM74.4631 29.4561H75.3114L77.5102 27.2919H78.3098L75.8222 29.7138L78.3542 32.4234H77.5502L75.3114 30.0236H74.4631V32.4234H73.8188V24.5694H74.4518L74.4631 29.4561ZM70.4097 27.209C70.7797 27.2059 71.1467 27.2755 71.4889 27.4143C71.813 27.5456 72.1024 27.7479 72.3354 28.0055L71.9242 28.4244C71.7268 28.2285 71.494 28.0703 71.2379 27.9573C70.971 27.8443 70.6827 27.7876 70.3919 27.7915C70.1179 27.7891 69.8464 27.8419 69.5946 27.9464C69.3529 28.0481 69.1344 28.1966 68.9525 28.3827C68.7681 28.5712 68.624 28.7935 68.5282 29.0372C68.3246 29.5704 68.3246 30.1579 68.5282 30.6909C68.7157 31.1833 69.1013 31.578 69.5946 31.7818C69.8464 31.8867 70.1179 31.9393 70.3919 31.9367C70.6871 31.9399 70.9794 31.8804 71.249 31.7623C71.5051 31.6491 71.739 31.4925 71.9398 31.2996L72.3354 31.7253C72.0999 31.9818 71.8092 32.1838 71.4845 32.3165C71.1431 32.455 70.7768 32.5251 70.4073 32.5213C70.0375 32.5259 69.6703 32.4576 69.328 32.3206C68.6864 32.0645 68.1804 31.5605 67.9288 30.9265C67.6656 30.2494 67.6656 29.5006 67.9288 28.8236C68.1793 28.1888 68.6855 27.6835 69.328 27.4272C69.6656 27.2816 70.0297 27.204 70.3984 27.1983L70.4097 27.209ZM64.0861 27.7612C63.836 27.7577 63.5877 27.8031 63.3554 27.894C63.1399 27.9804 62.9429 28.1063 62.7759 28.2649C62.6058 28.4275 62.4674 28.619 62.3672 28.83C62.2591 29.0573 62.1909 29.3006 62.1651 29.5501H65.8896C65.8707 29.2988 65.8083 29.0523 65.7053 28.8212C65.6122 28.6105 65.4794 28.4189 65.3144 28.2562C64.9845 27.935 64.5374 27.7566 64.0728 27.7612H64.0861ZM64.0861 27.209C64.4193 27.2064 64.7491 27.2725 65.0545 27.4032C65.3468 27.5284 65.6091 27.7119 65.8252 27.9422C66.0484 28.1838 66.2226 28.4652 66.3385 28.7713C66.4678 29.1086 66.5337 29.4664 66.5337 29.827V29.9603V30.0822H62.1405C62.1565 30.3578 62.2251 30.6279 62.3426 30.8788C62.4499 31.1024 62.6007 31.3033 62.7868 31.47C62.9683 31.6319 63.1804 31.7571 63.4109 31.8385C63.6526 31.9238 63.9073 31.9666 64.1641 31.965C64.5019 31.9707 64.8368 31.9037 65.1456 31.7689C65.4367 31.6367 65.7019 31.4558 65.9298 31.2344L66.2694 31.6707C66.1153 31.8247 65.9447 31.9622 65.7608 32.0807C65.5958 32.1867 65.4192 32.2744 65.2344 32.3427C65.0578 32.4077 64.8748 32.4535 64.688 32.4801C64.5019 32.5052 64.314 32.5174 64.1263 32.517C63.765 32.5207 63.4065 32.4546 63.0713 32.323C62.7584 32.2002 62.4747 32.0152 62.2384 31.7798C61.9985 31.5374 61.8129 31.2492 61.692 30.9333C61.5548 30.5856 61.487 30.2153 61.4919 29.8425C61.4881 29.4777 61.5552 29.1155 61.6896 28.7754C61.8129 28.4628 61.9977 28.1774 62.2338 27.9355C62.467 27.6999 62.7466 27.5135 63.0556 27.3881C63.3818 27.2572 63.7316 27.1926 64.0839 27.1983L64.0861 27.209ZM55.8971 28.18C55.9966 28.018 56.1192 27.8711 56.2613 27.7437C56.3944 27.6226 56.5438 27.5205 56.7055 27.4405C56.8681 27.3624 57.0396 27.3037 57.2164 27.2657C57.3914 27.228 57.5702 27.209 57.7497 27.209C58.0519 27.2062 58.3524 27.2548 58.6381 27.3532C58.8966 27.4426 59.1338 27.5827 59.3353 27.7653C59.5305 27.9488 59.6824 28.1722 59.7795 28.4198C59.8883 28.6938 59.9416 28.9857 59.9372 29.2796V32.4256H59.3044V29.4561C59.3075 29.219 59.27 28.9829 59.1933 28.7582C59.1249 28.561 59.0125 28.3812 58.8644 28.2324C58.7156 28.086 58.5361 27.9734 58.338 27.9028C58.1101 27.8227 57.8694 27.7834 57.6273 27.7873C57.3927 27.7852 57.16 27.8266 56.941 27.9093C56.7337 27.9876 56.545 28.1065 56.3857 28.2586C56.2267 28.4128 56.1005 28.5967 56.0148 28.7994C55.9226 29.0178 55.8764 29.2526 55.8795 29.489V32.4125H55.2463V24.5585H55.8795L55.8971 28.18ZM50.449 24.6894C50.774 24.6885 51.0982 24.7252 51.415 24.7985C51.7184 24.8685 52.0122 24.9739 52.2903 25.1124C52.5573 25.2451 52.8058 25.4106 53.0299 25.6057C53.2484 25.7964 53.4384 26.0167 53.594 26.2602L53.0275 26.6311C52.8942 26.4306 52.7345 26.2486 52.5521 26.09C52.3687 25.9301 52.1657 25.7931 51.9482 25.6818C51.7228 25.5673 51.4843 25.4802 51.2373 25.4224C50.9796 25.3622 50.716 25.3321 50.451 25.333C50.0095 25.3293 49.5713 25.4093 49.1608 25.5686C48.7735 25.7156 48.4208 25.9382 48.1234 26.2231C47.8246 26.5174 47.5892 26.8673 47.4306 27.2528C47.0934 28.1089 47.0934 29.058 47.4306 29.9145C47.5894 30.3006 47.8257 30.6517 48.1258 30.9462C48.4228 31.2309 48.7757 31.4534 49.1628 31.6007C49.5737 31.7599 50.0117 31.8398 50.4532 31.8363C50.7164 31.837 50.9787 31.8079 51.2353 31.7493C51.4812 31.6934 51.7192 31.6079 51.9436 31.4938C52.1621 31.383 52.3658 31.2459 52.5499 31.086C52.7332 30.9263 52.8931 30.7431 53.0252 30.5406L53.5805 30.9399C53.4195 31.182 53.2258 31.4022 53.0052 31.5944C52.782 31.7848 52.5359 31.9473 52.2723 32.0787C51.998 32.2153 51.7079 32.3182 51.4083 32.3863C50.5639 32.575 49.6812 32.5111 48.8743 32.2028C48.4025 32.02 47.9728 31.7462 47.6103 31.398C47.25 31.0468 46.966 30.6272 46.7752 30.1651C46.3718 29.1511 46.3718 28.0249 46.7752 27.0105C46.9655 26.5475 47.2496 26.1273 47.6103 25.7756C47.9728 25.4272 48.4025 25.1539 48.8743 24.9708C49.3751 24.7786 49.9089 24.6831 50.4466 24.6894H50.449ZM35.7676 25.4091V31.7798H37.9265C38.4353 31.7911 38.9422 31.7174 39.4257 31.5616C39.8321 31.4262 40.2044 31.2075 40.5184 30.92C40.8152 30.6394 41.0428 30.2965 41.1848 29.9167C41.4857 29.0689 41.4857 28.1462 41.1848 27.2987C41.0424 26.9184 40.8147 26.5746 40.5184 26.2927C40.2055 26.0043 39.8328 25.7855 39.4257 25.6515C38.9419 25.4964 38.4353 25.4226 37.9265 25.4333L35.7676 25.4091ZM37.9265 24.7766C38.521 24.7677 39.1127 24.8578 39.6767 25.0428C40.1704 25.2029 40.6244 25.463 41.0093 25.8064C41.3707 26.1424 41.6527 26.5519 41.8355 27.0063C42.2284 28.0275 42.2284 29.1546 41.8355 30.1763C41.6496 30.6325 41.3638 31.0428 40.9982 31.3784C40.6133 31.7215 40.1593 31.9816 39.6656 32.142C39.1023 32.3265 38.5113 32.4166 37.9176 32.4079H35.0879V24.7721L37.9265 24.7766ZM32.0851 32.4125H32.7625V24.7766H32.0851V32.4125Z" fill="white"/>
<mask id="mask0_646_41119" style="mask-type:luminance" maskUnits="userSpaceOnUse" x="-8" y="3" width="107" height="38">
<path d="M-7.69434 40.7402H98.6923V3.2373H-7.69434V40.7402Z" fill="white"/>
</mask>
<g mask="url(#mask0_646_41119)">
<path fill-rule="evenodd" clip-rule="evenodd" d="M10.1768 25.5926H17.1731V13.2422H10.1768V25.5926Z" fill="#FF5F00"/>
</g>
<mask id="mask1_646_41119" style="mask-type:luminance" maskUnits="userSpaceOnUse" x="-8" y="3" width="107" height="38">
<path d="M-7.69434 40.7402H98.6923V3.2373H-7.69434V40.7402Z" fill="white"/>
</mask>
<g mask="url(#mask1_646_41119)">
<path fill-rule="evenodd" clip-rule="evenodd" d="M10.629 19.4186C10.627 17.009 11.7533 14.7324 13.6829 13.2445C10.211 10.5643 5.18428 11.1562 2.45548 14.5666C-0.273093 17.9772 0.329481 22.9145 3.80167 25.5951C6.70126 27.8333 10.7834 27.8333 13.6829 25.5951C11.7526 24.1066 10.6263 21.8292 10.629 19.4186Z" fill="#EB001B"/>
</g>
<mask id="mask2_646_41119" style="mask-type:luminance" maskUnits="userSpaceOnUse" x="-8" y="3" width="107" height="38">
<path d="M-7.69434 40.7402H98.6923V3.2373H-7.69434V40.7402Z" fill="white"/>
</mask>
<g mask="url(#mask2_646_41119)">
<path fill-rule="evenodd" clip-rule="evenodd" d="M26.3615 24.2837V23.9785H26.2815L26.1882 24.1967L26.0949 23.9785H26.0128V24.2837H26.0705V24.0547L26.1571 24.2532H26.2171L26.3037 24.0547V24.2861L26.3615 24.2837ZM25.8484 24.2837V24.0307H25.955V23.9785H25.6885V24.0307H25.7929V24.2837H25.8484Z" fill="#F79E1B"/>
</g>
<mask id="mask3_646_41119" style="mask-type:luminance" maskUnits="userSpaceOnUse" x="-8" y="3" width="107" height="38">
<path d="M-7.69434 40.7402H98.6923V3.2373H-7.69434V40.7402Z" fill="white"/>
</mask>
<g mask="url(#mask3_646_41119)">
<path fill-rule="evenodd" clip-rule="evenodd" d="M26.6213 19.4188C26.6213 23.7566 23.0412 27.2728 18.6252 27.2726C16.8331 27.2726 15.0926 26.6809 13.6836 25.5929C17.1556 22.9127 17.7584 17.9752 15.0298 14.5646C14.6362 14.0728 14.1842 13.6289 13.6836 13.2425C17.1551 10.5616 22.182 11.1527 24.9113 14.5626C26.0196 15.9471 26.6217 17.6575 26.6213 19.4188Z" fill="#F79E1B"/>
</g>
</g>
<defs>
<clipPath id="clip0_646_41119">
<rect width="92" height="44" fill="white"/>
</clipPath>
</defs>
</svg>
