<svg width="85" height="34" viewBox="0 0 85 34" fill="none" xmlns="http://www.w3.org/2000/svg">
<g clip-path="url(#clip0_646_41018)">
<path d="M24.0253 14.9596C24.0641 14.9974 24.1029 15.0729 24.1417 15.1107C24.0641 14.7707 23.9089 14.4307 23.7536 14.0907C22.3175 11.5218 18.3198 12.2774 14.3609 15.1863C13.313 15.9418 12.3815 16.8485 11.5664 17.8307C12.0322 18.0952 12.4979 18.4352 12.9249 18.7752C13.1965 18.964 13.4682 19.1152 13.7787 19.2663C14.0504 18.964 14.2833 18.6996 14.555 18.4352C18.0481 14.9218 22.5892 13.1085 24.0253 14.9596Z" fill="url(#paint0_linear_646_41018)"/>
<path d="M24.2578 17.1513L24.3354 17.1136C24.4519 16.3202 24.413 15.6024 24.1025 15.1113C24.2578 15.7913 24.3354 16.4713 24.2578 17.1513Z" fill="url(#paint1_linear_646_41018)"/>
<path d="M24.1028 15.1111C24.064 15.0733 24.0251 14.9977 23.9863 14.96C24.0251 15.0733 24.064 15.1489 24.064 15.2622C24.1028 15.3377 24.1416 15.4133 24.1804 15.4889C24.1804 15.3377 24.1416 15.2244 24.1028 15.1111Z" fill="#E7E6E6"/>
<path d="M14.2834 15.3759C18.2423 12.467 22.24 11.6737 23.6761 14.2426C23.7926 14.4693 23.909 14.6959 23.9866 14.9604C24.0254 14.9982 24.0642 15.0737 24.1031 15.1115C24.0254 14.7715 23.8702 14.4315 23.7149 14.0915C22.2789 11.5226 18.2811 12.3159 14.3222 15.2626C12.8473 16.3204 11.6441 17.6426 10.6738 19.1537C10.6738 19.1537 10.6738 19.1537 10.7126 19.1915C11.6441 17.7182 12.8473 16.4337 14.2834 15.3759Z" fill="#E7E6E6"/>
<path d="M13.1571 17.9448C12.8078 17.6425 12.4197 17.3403 12.0703 17.0381C11.3717 17.8314 10.6343 18.5492 9.78039 19.2292C6.24842 22.1003 2.40596 23.0448 1.24157 21.3448C1.24157 21.307 1.20276 21.307 1.20276 21.2692C0.969883 20.9292 0.814632 20.5892 0.698194 20.2114C0.50413 19.4936 0.50413 18.7381 0.737006 18.0581C0.193627 19.1159 0.0383763 20.1736 0.387691 21.0803C1.28039 23.4225 5.31692 23.8003 9.35344 21.9114C11.2553 21.0425 12.8078 19.7959 13.8557 18.5114C13.6229 18.3225 13.39 18.1336 13.1571 17.9448Z" fill="url(#paint2_linear_646_41018)"/>
<path d="M4.54086 14.3555C4.3468 14.3555 4.15273 14.3932 3.99748 14.4688V14.5066H3.95867C3.18241 15.0355 3.1436 15.0732 3.99748 14.5066C3.49292 14.771 3.02716 15.111 2.60022 15.5266C1.90159 16.1688 1.3194 16.9244 0.853646 17.7555C0.814833 17.831 0.776021 17.9444 0.698395 18.0199C0.465518 18.7377 0.465518 19.4932 0.659582 20.1732C0.776021 20.551 0.931272 20.891 1.16415 21.231C0.853646 20.7021 0.698395 20.0977 0.698395 19.4932C0.698395 17.9821 2.01803 16.0177 2.91072 15.2621C3.29885 14.9221 3.76461 14.6955 4.30798 14.6577C4.38561 14.5444 4.46324 14.431 4.54086 14.3555Z" fill="url(#paint3_linear_646_41018)"/>
<path opacity="0.71" d="M7.91797 20.5134C9.58692 19.4934 11.0618 18.1334 11.5276 17.5289L11.7992 17.2267C11.9933 17.0378 12.265 16.66 12.4979 16.4711C13.0413 16.2067 14.0116 15.5267 15.0595 14.8467C15.4865 14.5445 15.9522 14.28 16.1851 14.1289L17.3883 16.0933C16.6508 16.5845 14.7102 18.1711 14.0116 18.7378C13.7787 18.9267 14.0504 18.5111 13.8563 18.7L12.4203 19.9845C11.4111 20.8156 10.3244 21.4956 9.12117 22.0245L7.91797 20.5134Z" fill="url(#paint4_linear_646_41018)"/>
<path d="M23.4431 13.7509C26.3928 19.1909 19.6782 21.7598 16.1463 17.982C14.6714 16.1686 14.4773 15.262 13.5846 14.3175C9.6257 10.5775 3.88141 12.9198 0.931641 17.6042C1.31977 17.1509 3.8426 14.3553 7.491 14.8086C10.3243 15.1486 10.7901 18.662 14.9431 20.7398C19.6782 23.082 28.1782 19.9086 23.4431 13.7509Z" fill="url(#paint5_linear_646_41018)"/>
<path opacity="0.57" d="M15.0598 20.5889C10.9068 18.5111 10.441 14.9978 7.60771 14.6578C4.11456 14.2422 1.66936 16.7355 1.12598 17.3778C1.86342 16.5844 4.231 14.3933 7.49127 14.8089C10.3246 15.1489 10.7904 18.6622 14.9433 20.74C17.8931 22.2133 22.2401 21.5333 24.0255 19.3422C22.2013 21.42 17.9319 22.0244 15.0598 20.5889Z" fill="#1887B2"/>
<path d="M23.5981 13.9018C23.5593 13.8262 23.5205 13.7884 23.4428 13.7129C26.315 19.0396 19.9497 21.6084 16.3789 18.1707C19.9109 21.7218 26.3538 19.2284 23.5981 13.9018Z" fill="white"/>
<path d="M38.619 12.8441C38.5802 12.8063 38.5025 12.8063 38.4637 12.8063C38.0368 12.693 37.0277 12.6552 36.6783 12.9196C36.6395 12.9574 36.5619 13.033 36.5619 13.1085C35.5916 14.3552 34.6989 15.6396 33.8838 16.9996L31.3998 13.1085V13.0707C31.361 12.9952 31.3222 12.9574 31.2834 12.8818C31.0117 12.6552 30.119 12.6552 29.6532 12.7307C29.5368 12.7307 29.4204 12.7685 29.3427 12.8063C29.1487 12.8818 29.0322 13.0707 29.0322 13.2596V21.4574C29.0322 21.6085 29.1099 21.9107 29.6144 21.9863C29.7697 22.0241 29.9637 22.0241 30.119 22.0241C30.4683 22.0241 31.2446 22.0241 31.2446 21.4574V16.773C31.3998 17.0374 31.7103 17.5285 32.0596 18.133C32.5254 19.0018 32.8359 19.5307 33.0299 19.7952L33.1076 19.9841C33.1852 20.0974 33.3016 20.2107 33.4181 20.3241C33.6898 20.4752 34.0003 20.513 34.3108 20.4752C34.3884 20.4374 34.466 20.4374 34.5048 20.3618C34.6601 20.2863 34.7765 20.173 34.8541 20.0218L35.087 19.6441C35.2035 19.4552 35.4363 19.0396 35.8245 18.3218C36.2126 17.6041 36.5231 17.113 36.7172 16.773C37.0277 16.2818 36.7172 17.6418 36.7172 17.7174V21.533C36.7172 22.0996 37.4546 22.0996 37.8427 22.0996C38.192 22.0996 38.9683 22.0996 38.9683 21.533V13.2974C38.8907 13.1085 38.7742 12.9574 38.619 12.8441Z" fill="#2D9DD3"/>
<path d="M41.3356 16.0938C40.5981 16.0938 40.5205 16.2071 40.5205 16.3582V21.5715C40.5205 21.7226 40.6369 21.836 41.3356 21.836C42.0342 21.836 42.1506 21.7226 42.1506 21.5715V16.3582C42.1506 16.2449 42.0342 16.0938 41.3356 16.0938Z" fill="#2D9DD3"/>
<path d="M41.3355 22.1755C40.9862 22.1755 40.21 22.1755 40.21 21.6088V16.3577C40.21 15.791 40.9474 15.791 41.3355 15.791C41.6848 15.791 42.4611 15.791 42.4611 16.3577V21.571C42.4223 22.1755 41.6848 22.1755 41.3355 22.1755ZM40.831 21.5332C41.1803 21.571 41.4908 21.571 41.8401 21.5332V16.4332C41.4908 16.3955 41.1803 16.3955 40.831 16.4332V21.5332Z" fill="#2D9DD3"/>
<path d="M49.4865 13.1465H44.7902C44.2856 13.1465 44.0527 13.222 44.0527 13.4109V21.6087C44.0527 21.7598 44.1692 21.8732 44.8678 21.8732C45.5664 21.8732 45.6829 21.7598 45.6829 21.6087V18.2465H49.0208C49.2925 18.2465 49.4477 17.9443 49.4477 17.5287C49.4477 17.0754 49.2925 16.8109 49.0208 16.8109H45.6829V14.6576H49.4865C49.7582 14.6576 49.9135 14.3554 49.9135 13.9398C49.9135 13.4487 49.7582 13.1465 49.4865 13.1465Z" fill="#2D9DD3"/>
<path d="M44.9068 22.1758C44.5575 22.1758 43.7812 22.1758 43.7812 21.6092V13.4114C43.7812 12.8825 44.4023 12.8825 44.8292 12.8447H49.5255C49.8749 12.8447 50.263 13.1092 50.263 13.8647C50.263 14.6203 49.8749 14.8847 49.5255 14.8847H46.0324V16.4336H49.0598C49.4091 16.4336 49.7972 16.6981 49.7972 17.4536C49.7972 18.2092 49.4091 18.4736 49.0598 18.4736H46.0324V21.5714C45.9936 22.1758 45.2561 22.1758 44.9068 22.1758ZM44.4023 21.5336C44.7516 21.5714 45.0621 21.5714 45.4114 21.5336V17.9447H49.0598C49.0986 17.9447 49.1762 17.7936 49.1762 17.5292C49.1762 17.2647 49.0986 17.1136 49.0598 17.1136H45.4114V14.3558H49.5255C49.5644 14.3558 49.642 14.2425 49.642 13.9403C49.642 13.6381 49.5255 13.5247 49.5255 13.5247H44.8292C44.6739 13.5247 44.5187 13.5247 44.4023 13.5625V21.5336Z" fill="#2D9DD3"/>
<path d="M61.712 13.1468C61.0134 13.1468 60.8969 13.2979 60.8969 13.4113V18.8135L57.0545 13.2979V13.2602C56.8604 13.0713 55.8901 13.109 55.6572 13.2224C55.5796 13.2602 55.502 13.3357 55.502 13.4113V21.5713C55.502 21.6468 55.502 21.8357 56.317 21.8357C57.1321 21.8357 57.1321 21.6468 57.1321 21.5713V16.169L60.9746 21.6846C61.0522 21.7979 61.4015 21.8357 61.712 21.8357C61.9061 21.8357 62.1389 21.8357 62.333 21.7602C62.4883 21.7224 62.5271 21.609 62.5271 21.5335V13.4113C62.5271 13.2979 62.4494 13.1468 61.712 13.1468Z" fill="#2D9DD3"/>
<path d="M61.712 22.1758C61.0133 22.1758 60.8193 22.0247 60.7028 21.8736L57.4425 17.1514V21.5714C57.4425 22.1381 56.7051 22.1381 56.317 22.1381C55.9677 22.1381 55.1914 22.1381 55.1914 21.5714V13.4114C55.1914 13.1847 55.3467 13.0336 55.5407 12.9581C55.7736 12.8825 56.938 12.7692 57.2873 13.0714L57.3261 13.1469L60.5864 17.8692V13.4114C60.5864 12.8447 61.3626 12.8447 61.712 12.8447C62.0613 12.8447 62.8375 12.8447 62.8375 13.4114V21.5714C62.8375 21.7981 62.6435 22.0247 62.4106 22.0625C62.2165 22.1381 61.9448 22.1758 61.712 22.1758ZM61.2074 21.4958C61.3626 21.5336 61.5567 21.5714 61.712 21.5714C61.906 21.5714 62.0613 21.5714 62.2165 21.5336V13.4869C61.8672 13.4492 61.5567 13.4492 61.2074 13.4869V19.7958L56.8215 13.4869C56.4722 13.4114 56.1229 13.4114 55.7736 13.4869V21.5336C56.1229 21.5714 56.4334 21.5714 56.7827 21.5336V15.2247L61.2074 21.4958Z" fill="#2D9DD3"/>
<path d="M65.4772 13.1465C64.7785 13.1465 64.6621 13.2598 64.6621 13.4109V21.6087C64.6621 21.7598 64.7785 21.8732 65.4772 21.8732C66.1758 21.8732 66.2922 21.7598 66.2922 21.6087V13.4109C66.2922 13.2598 66.2146 13.1465 65.4772 13.1465Z" fill="#2D9DD3"/>
<path d="M65.4771 22.1758C65.1278 22.1758 64.3516 22.1758 64.3516 21.6092V13.4114C64.3516 12.8447 65.089 12.8447 65.4771 12.8447C65.8264 12.8447 66.6027 12.8447 66.6027 13.4114V21.6092C66.6027 22.1758 65.8653 22.1758 65.4771 22.1758ZM64.9726 21.5336C65.3219 21.5714 65.6324 21.5714 65.9817 21.5336V13.4869C65.8264 13.4492 65.6324 13.4492 65.4771 13.4492C65.3219 13.4492 65.1278 13.4492 64.9726 13.4869V21.5336Z" fill="#2D9DD3"/>
<path d="M52.5524 13.1465C51.8537 13.1465 51.7373 13.2598 51.7373 13.4109V21.6087C51.7373 21.7598 51.8537 21.8732 52.5524 21.8732C53.251 21.8732 53.3674 21.7598 53.3674 21.6087V13.4109C53.3674 13.2598 53.251 13.1465 52.5524 13.1465Z" fill="#2D9DD3"/>
<path d="M52.5523 22.1758C52.203 22.1758 51.4268 22.1758 51.4268 21.6092V13.4114C51.4268 12.8447 52.1642 12.8447 52.5523 12.8447C52.9016 12.8447 53.6779 12.8447 53.6779 13.4114V21.6092C53.6391 22.1758 52.9016 22.1758 52.5523 22.1758ZM52.0478 21.5336C52.3971 21.5714 52.7076 21.5714 53.0569 21.5336V13.4869C52.7076 13.4492 52.3971 13.4492 52.0478 13.4869V21.5336Z" fill="#2D9DD3"/>
<path d="M74.9473 13.1465H68.3879C68.2326 13.1465 68.1162 13.2598 68.1162 13.9398C68.1162 14.6198 68.2326 14.7332 68.3879 14.7332H70.8719V21.6087C70.8719 21.7598 70.9884 21.8732 71.687 21.8732C72.3856 21.8732 72.5021 21.7598 72.5021 21.6087V14.7332H74.9861C75.1413 14.7332 75.2578 14.6198 75.2578 13.9398C75.2189 13.2598 75.0637 13.1465 74.9473 13.1465Z" fill="#2D9DD3"/>
<path d="M71.6489 22.1758C71.2995 22.1758 70.5233 22.1758 70.5233 21.6092V15.0358H68.3498C67.7676 15.0358 67.7676 14.3181 67.7676 13.9403C67.7676 13.5625 67.7676 12.8447 68.3498 12.8447H74.9091C75.4913 12.8447 75.4913 13.5625 75.4913 13.9403C75.4913 14.3181 75.4913 15.0358 74.9091 15.0358H72.7356V21.6092C72.7744 22.1758 72.037 22.1758 71.6489 22.1758ZM71.1831 21.5336C71.5324 21.5714 71.8429 21.5714 72.1922 21.5336V14.4314H74.8703C74.9091 14.0914 74.9091 13.7892 74.8703 13.4492H68.4662C68.4274 13.7892 68.4274 14.0914 68.4662 14.4314H71.1443V21.5336H71.1831Z" fill="#2D9DD3"/>
<path d="M84.3009 13.2223C83.9904 13.109 82.8648 13.109 82.6708 13.3357L80.6137 16.4335L78.5566 13.3357C78.3626 13.0712 77.237 13.109 76.9265 13.1846C76.7712 13.2223 76.7324 13.3357 76.7324 13.4112V13.449L79.7986 18.0957V21.4957C79.7986 21.5712 79.7986 21.7979 80.6137 21.7979C81.4288 21.7979 81.4288 21.5712 81.4288 21.4957V18.0957L84.495 13.449V13.4112C84.495 13.3735 84.4562 13.2979 84.3009 13.2223Z" fill="#2D9DD3"/>
<path d="M80.6146 22.1752C80.3429 22.1752 79.4891 22.1752 79.4891 21.5707V18.2463L76.4229 13.5996V13.4863C76.4229 13.2596 76.6169 13.033 76.8498 12.9952C77.1603 12.8818 78.4799 12.8063 78.8292 13.2218L80.6146 15.9041L82.4 13.1841C82.7493 12.7685 84.1078 12.8441 84.3795 12.9574C84.6123 13.0329 84.7676 13.2218 84.7676 13.4485V13.5618L81.7014 18.2085V21.5329C81.7402 22.1752 80.8863 22.1752 80.6146 22.1752ZM80.1101 21.4952C80.4594 21.5707 80.7699 21.5707 81.1192 21.4952V18.0574L84.1466 13.4863C83.8361 13.4107 83.0987 13.4485 82.9046 13.5618L80.6146 17.0374L78.3247 13.5996C78.1694 13.4863 77.432 13.4863 77.0827 13.5241L80.0713 18.0952L80.1101 21.4952Z" fill="#2D9DD3"/>
<path d="M40.9864 12.9199H41.5686C42.0732 12.9199 42.4613 13.2977 42.4613 13.7888V14.3933C42.4613 14.8844 42.0732 15.2621 41.5686 15.2621H40.9864C40.4819 15.2621 40.0938 14.8844 40.0938 14.3933V13.7888C40.0938 13.2977 40.4819 12.9199 40.9864 12.9199Z" fill="#2D9DD3"/>
</g>
<defs>
<linearGradient id="paint0_linear_646_41018" x1="10.6803" y1="15.8883" x2="24.4034" y2="16.0359" gradientUnits="userSpaceOnUse">
<stop offset="0.01" stop-color="#FFA220"/>
<stop offset="0.04" stop-color="#FFA61C"/>
<stop offset="0.34" stop-color="#FFC000"/>
<stop offset="0.61" stop-color="#FDC200"/>
<stop offset="0.74" stop-color="#F6C900"/>
<stop offset="0.75" stop-color="#F5CB00"/>
<stop offset="0.78" stop-color="#F3C200"/>
<stop offset="0.84" stop-color="#F0B100"/>
<stop offset="0.89" stop-color="#EFAB00"/>
<stop offset="1" stop-color="#B74600"/>
</linearGradient>
<linearGradient id="paint1_linear_646_41018" x1="10.6786" y1="16.0072" x2="24.4017" y2="16.1549" gradientUnits="userSpaceOnUse">
<stop offset="0.01" stop-color="#FFA220"/>
<stop offset="0.04" stop-color="#FFA61C"/>
<stop offset="0.34" stop-color="#FFC000"/>
<stop offset="0.61" stop-color="#FDC200"/>
<stop offset="0.74" stop-color="#F6C900"/>
<stop offset="0.75" stop-color="#F5CB00"/>
<stop offset="0.78" stop-color="#F3C200"/>
<stop offset="0.84" stop-color="#F0B100"/>
<stop offset="0.89" stop-color="#EFAB00"/>
<stop offset="1" stop-color="#B74600"/>
</linearGradient>
<linearGradient id="paint2_linear_646_41018" x1="1.47376" y1="18.663" x2="14.2506" y2="21.6822" gradientUnits="userSpaceOnUse">
<stop offset="0.01" stop-color="#C59252"/>
<stop offset="0.22" stop-color="#EBA31C"/>
<stop offset="0.34" stop-color="#FFAC00"/>
<stop offset="0.51" stop-color="#FDAC03"/>
<stop offset="0.63" stop-color="#F6AB0D"/>
<stop offset="0.75" stop-color="#E9AA1E"/>
<stop offset="0.78" stop-color="#E4A925"/>
<stop offset="0.8" stop-color="#E7AC21"/>
<stop offset="0.86" stop-color="#F4B70F"/>
<stop offset="0.93" stop-color="#FCBE04"/>
<stop offset="1" stop-color="#FFC000"/>
</linearGradient>
<linearGradient id="paint3_linear_646_41018" x1="3.46435" y1="14.2517" x2="0.735815" y2="20.5244" gradientUnits="userSpaceOnUse">
<stop offset="0.01" stop-color="#C59252"/>
<stop offset="0.22" stop-color="#EBA31C"/>
<stop offset="0.34" stop-color="#FFAC00"/>
<stop offset="0.51" stop-color="#FDAC03"/>
<stop offset="0.63" stop-color="#F6AB0D"/>
<stop offset="0.75" stop-color="#E9AA1E"/>
<stop offset="0.78" stop-color="#E4A925"/>
<stop offset="0.8" stop-color="#E7AC21"/>
<stop offset="0.86" stop-color="#F4B70F"/>
<stop offset="0.93" stop-color="#FCBE04"/>
<stop offset="1" stop-color="#FFC000"/>
</linearGradient>
<linearGradient id="paint4_linear_646_41018" x1="15.6605" y1="14.7985" x2="6.82894" y2="20.0367" gradientUnits="userSpaceOnUse">
<stop stop-opacity="0"/>
<stop offset="0.4592" stop-opacity="0.3"/>
<stop offset="1" stop-opacity="0"/>
</linearGradient>
<linearGradient id="paint5_linear_646_41018" x1="27.1238" y1="22.3902" x2="2.89423" y2="10.8881" gradientUnits="userSpaceOnUse">
<stop offset="0.01" stop-color="#001F2A"/>
<stop offset="0.16" stop-color="#004B5D"/>
<stop offset="0.2" stop-color="#00576E"/>
<stop offset="0.31" stop-color="#00799F"/>
<stop offset="0.42" stop-color="#0094C7"/>
<stop offset="0.52" stop-color="#00A8E3"/>
<stop offset="0.61" stop-color="#00B4F4"/>
<stop offset="0.67" stop-color="#00B8FA"/>
<stop offset="0.76" stop-color="#00B6F7"/>
<stop offset="0.83" stop-color="#01AEEC"/>
<stop offset="0.9" stop-color="#03A2DA"/>
<stop offset="0.97" stop-color="#0691C1"/>
<stop offset="1" stop-color="#0788B3"/>
</linearGradient>
<clipPath id="clip0_646_41018">
<rect width="85" height="34" fill="white"/>
</clipPath>
</defs>
</svg>
