<svg width="79" height="14" viewBox="0 0 79 14" fill="none" xmlns="http://www.w3.org/2000/svg">
<g clip-path="url(#clip0_646_41061)">
<path d="M69.6517 5.90196C69.2567 6.17647 68.5983 6.31372 67.8083 6.31372H67.0183L67.545 2.7451H68.2033C68.8617 2.7451 69.3883 2.88235 69.7833 3.01961C70.0467 3.29412 70.31 3.56863 70.31 4.39216C70.31 5.21569 70.0467 5.62745 69.6517 5.90196ZM19.8817 10.4314H13.43L13.825 7.96078H17.9067L18.3017 5.35294H14.3517L14.7467 3.01961H21.1983L19.8817 10.4314ZM73.2067 0.960784C72.1533 0.27451 70.705 0 68.8617 0H63.99L62.1467 10.4314H55.695L56.09 7.96078H59.9083L60.435 5.35294H56.485L57.0117 3.01961H60.9617L61.4883 0H53.325L51.6133 9.88235H48.585L50.4283 0H46.0833L44.3717 9.88235H41.475L43.1867 0H38.9733L37.13 10.4314H30.6783L31.0733 7.96078H34.8917L35.4183 5.35294H31.4683L31.8633 3.01961H35.945L36.4717 0H11.06L9.61167 8.23529L6.84667 0H2.37L0 13.451H4.21333L5.66167 4.94118L8.42667 13.451H23.5683L25.4117 3.01961H27.7817L25.9383 13.451H65.7017L66.8867 6.86274L68.73 13.451H72.9433L70.9683 8.09804L71.495 7.96078C72.4167 7.68627 73.2067 7.27451 73.7333 6.58823C74.26 5.90196 74.5233 4.94118 74.5233 3.84314C74.5233 2.60784 74.1283 1.64706 73.2067 0.960784ZM76.63 11.8039H77.5517C77.5517 11.6667 77.5517 11.6667 77.6833 11.6667V11.3922C77.6833 11.2549 77.6833 11.2549 77.5517 11.1176H76.63V11.8039ZM76.3667 13.0392V10.9804L77.1567 10.8431H77.6833C77.6833 10.9804 77.815 10.9804 77.815 11.1176C77.9467 11.1176 77.9467 11.2549 77.9467 11.3922C77.9467 11.5294 77.9467 11.6667 77.815 11.8039C77.815 11.9412 77.5517 11.9412 77.42 12.0784H77.5517L77.815 12.3529L78.21 12.902H77.815L77.5517 12.4902C77.5517 12.3529 77.42 12.3529 77.42 12.2157C77.2883 12.2157 77.2883 12.0784 77.2883 12.0784H76.63V13.0392H76.3667Z" fill="#8CC540"/>
<path d="M75.5766 11.9414C75.5766 11.5297 75.7083 11.1179 75.9716 10.8434C76.235 10.5689 76.63 10.2944 77.025 10.2944C77.9466 10.2944 78.605 10.9806 78.7366 11.8042V11.9414C78.7366 12.7649 78.0783 13.4512 77.1566 13.5885C76.3666 13.5885 75.5766 12.9022 75.5766 11.9414ZM77.025 10.0198C76.4983 10.0198 76.1033 10.1571 75.7083 10.5689C75.3133 10.9806 75.1816 11.5297 75.1816 12.0787C75.3133 13.1767 76.1033 14.0002 77.1566 13.863C78.21 13.863 79 12.9022 79 11.8042C79 10.7061 78.0783 9.88259 77.025 10.0198Z" fill="#8CC540"/>
</g>
<defs>
<clipPath id="clip0_646_41061">
<rect width="79" height="14" fill="white"/>
</clipPath>
</defs>
</svg>
