<svg width="100" height="100" viewBox="0 0 100 100" fill="none" xmlns="http://www.w3.org/2000/svg">
<circle opacity="0.4" cx="50" cy="50" r="50" fill="#14161B"/>
<path d="M71.8516 64.8126C71.8021 64.7527 66.914 58.547 66.914 51.3022V42.1745C66.914 32.849 59.3255 25.2605 50 25.2605C40.6744 25.2605 33.0859 32.849 33.0859 42.1745V51.3022C33.0859 58.5443 28.2005 64.7501 28.1484 64.8126C27.8359 65.2032 27.776 65.7397 27.9921 66.1902C28.2083 66.6407 28.664 66.9272 29.164 66.9272H70.8307C71.3307 66.9272 71.7864 66.6407 72.0026 66.1902C72.2239 65.737 72.1614 65.2032 71.8516 64.8126ZM55.2864 49.922C56.0494 50.685 56.0494 51.922 55.2864 52.685C54.9062 53.0652 54.4062 53.2579 53.9062 53.2579C53.4062 53.2579 52.9062 53.0678 52.526 52.685L50 50.1589L47.4739 52.685C47.0937 53.0652 46.5937 53.2579 46.0937 53.2579C45.5937 53.2579 45.0937 53.0678 44.7135 52.685C43.9505 51.922 43.9505 50.685 44.7135 49.922L47.2396 47.3959L44.7135 44.8699C43.9505 44.1068 43.9505 42.8699 44.7135 42.1068C45.4765 41.3438 46.7135 41.3438 47.4766 42.1068L50.0026 44.6329L52.5286 42.1068C53.2916 41.3438 54.5286 41.3438 55.2916 42.1068C56.0547 42.8699 56.0547 44.1068 55.2916 44.8699L52.7656 47.3959L55.2864 49.922ZM55.6302 71.4897C54.4427 73.5235 52.3385 74.7397 50 74.7397C47.6614 74.7397 45.5573 73.5235 44.3698 71.4897C44.1354 71.0886 44.1328 70.5886 44.3646 70.185C44.5963 69.7813 45.026 69.5313 45.4948 69.5313H54.5052C54.9713 69.5313 55.401 69.7813 55.6354 70.185C55.8698 70.5886 55.8646 71.0886 55.6302 71.4897Z" fill="#40485C"/>
</svg>
