<svg width="73" height="22" viewBox="0 0 73 22" fill="none" xmlns="http://www.w3.org/2000/svg">
<g clip-path="url(#clip0_646_41009)">
<mask id="mask0_646_41009" style="mask-type:luminance" maskUnits="userSpaceOnUse" x="0" y="0" width="73" height="22">
<path d="M73 0H0V22H73V0Z" fill="white"/>
</mask>
<g mask="url(#mask0_646_41009)">
<path d="M8.36993 0.0659549C10.3671 0.117655 12.3697 0.0582549 14.3669 0.0923549C14.9868 0.173755 15.6656 0.589555 15.8813 1.21216C16.0774 1.79516 15.9848 2.37266 15.7691 2.93366C14.7722 5.58136 13.7872 8.23676 12.7892 10.8845C12.4089 11.859 11.6408 12.5641 10.7234 13.0184C10.2113 16.0104 9.69919 19.0068 9.19255 21.9999H9.11628C8.13895 21.8822 7.13547 21.9724 6.15052 21.9449C6.69311 19.0871 7.20738 16.2205 7.74998 13.3605C7.26259 13.3571 6.77519 13.3571 6.2878 13.3605C5.22331 16.2249 4.1185 19.0772 3.06272 21.9438C2.05271 21.9405 1.03834 21.9592 0.0283203 21.9295C0.381335 21.2497 0.605783 20.5325 0.883619 19.8186C3.38305 13.2362 5.86178 6.64616 8.36993 0.0659549ZM10.3529 2.64326C9.26663 5.39106 8.25226 8.21366 7.18777 10.9747L9.80052 10.9758C10.8487 8.19276 11.8892 5.40976 12.9384 2.62786C12.0777 2.63886 11.2126 2.59706 10.3529 2.64326ZM23.6433 0.0934549C24.8843 0.0681549 26.1253 0.0934549 27.3652 0.0824549C28.1508 0.0560549 28.9974 0.593955 29.1978 1.38816C29.3743 1.97996 29.1935 2.49036 29.0017 3.04256C26.6712 9.34226 24.3624 15.6507 22.0373 21.9537C21.0414 21.9339 20.0434 21.9559 19.0465 21.9372C20.0908 19.074 21.1477 16.2154 22.2171 13.3616C21.2997 13.3671 20.3757 13.3308 19.4605 13.3737C19.3407 13.5442 19.2753 13.7587 19.199 13.9523C18.2271 16.6231 17.216 19.2785 16.2442 21.9471C15.2527 21.9405 14.2612 21.9537 13.2719 21.9383C15.5479 15.8179 17.8316 9.70196 20.1099 3.58266C20.3082 3.06456 20.4749 2.50686 20.7527 2.02726C21.3705 1.00426 22.484 0.298055 23.6433 0.0934549ZM23.4276 2.61576C22.3751 5.35146 21.3857 8.13336 20.342 10.8735C21.2724 10.879 22.2018 10.879 23.1323 10.8724C24.1369 8.10916 25.1709 5.35806 26.1809 2.59706C25.2656 2.61136 24.3417 2.56406 23.4276 2.61576ZM34.7851 0.0934549C36.646 0.0714549 38.5113 0.0934549 40.3723 0.0824549C41.16 0.0527549 42.0077 0.595055 42.2169 1.38596C42.3694 1.91396 42.2496 2.39576 42.0774 2.89736C40.9259 6.0702 39.7772 9.24406 38.6312 12.4189C38.1627 13.9556 36.5719 15.1744 34.967 15.1205C34.0583 15.1216 33.1475 15.1172 32.2377 15.1183C31.4096 17.3931 30.563 19.6635 29.7535 21.9438C28.7587 21.9405 27.764 21.9603 26.7692 21.9284C29.4604 14.6574 32.108 7.36886 34.7851 0.0934549ZM39.2195 2.62676C38.4111 2.63336 37.6005 2.60476 36.7953 2.64326C35.5804 5.93996 34.3874 9.24986 33.1714 12.5465C33.9853 12.5487 34.8003 12.5454 35.6153 12.5498C36.8323 9.24812 38.0345 5.94038 39.2195 2.62676ZM55.5454 0.0835549C57.4695 0.0857549 59.3948 0.0868549 61.32 0.0813549C62.1045 0.0362549 62.9947 0.560955 63.2148 1.35626C63.3499 1.84906 63.2823 2.33966 63.12 2.81706C61.1816 8.31266 59.2324 13.8082 57.3007 19.306C56.7548 20.9714 54.9265 22.1176 53.2105 21.946C51.3898 21.9625 49.5583 21.9064 47.7409 21.9757C47.912 21.4081 48.119 20.8559 48.3173 20.2982C50.7241 13.5596 53.1397 6.82326 55.5454 0.0835549ZM57.5861 2.63006C55.5912 8.18726 53.5766 13.8632 51.5925 19.4347C52.4925 19.4314 53.3946 19.4435 54.2946 19.4237C56.2721 13.8126 58.2736 8.20596 60.2566 2.59596C59.3697 2.61906 58.4654 2.54756 57.5861 2.63006ZM72.7211 0.0373549C72.7396 0.833755 72.7353 1.63236 72.7244 2.42876L72.3931 2.41996C72.3953 2.09436 72.3921 1.77096 72.3953 1.44426C70.5387 1.42776 68.6778 1.47176 66.8212 1.42006L66.9693 1.11536C68.7726 1.07246 70.5878 1.10986 72.3899 1.09996C72.4552 0.758955 72.1861 -0.0308451 72.7211 0.0373549ZM47.5263 0.269455C48.1887 -0.0275451 48.8054 0.107755 49.4984 0.127555C49.81 0.149555 50.1325 0.155055 50.4321 0.262855L50.3613 0.709455C49.6476 2.51016 49.0419 4.35706 48.3674 6.17316C46.4956 11.4278 44.5736 16.6704 42.7257 21.9339C41.7306 21.9507 40.7354 21.9523 39.7403 21.9383C42.2289 15.0116 44.7338 8.08716 47.231 1.16266C47.3334 0.865655 47.4217 0.564255 47.5263 0.269455ZM66.9693 2.97766C68.8848 2.94136 70.8176 2.97106 72.7363 2.96666C72.6677 3.60356 72.9815 4.70686 72.209 4.98626C71.6381 5.09626 71.0181 5.04676 70.4374 5.03026C70.1051 5.03796 69.9689 4.81026 69.7412 4.61226C69.5222 4.80586 69.3903 5.03796 69.0678 5.03246C68.3705 5.05336 67.6634 5.06326 66.9693 5.02806L66.8255 4.71676C67.6046 4.65406 68.4086 4.76076 69.179 4.64746C69.6758 4.42416 69.5309 3.75206 69.5777 3.30876C68.6625 3.29666 67.7451 3.31976 66.8288 3.28786L66.9693 2.97766ZM69.909 3.29666L69.9035 3.38356C69.9122 3.87966 69.7488 4.37136 70.2849 4.64086C70.8667 4.69146 71.5422 4.69586 72.1229 4.63316C72.5304 4.35816 72.3561 3.74326 72.4008 3.30656C71.5694 3.29996 70.7403 3.31316 69.909 3.29666ZM66.8549 5.72656C68.5623 6.00486 70.2565 6.34586 71.9617 6.63956C72.2613 6.71106 72.5718 6.70556 72.8061 6.92556V7.07956C72.1796 7.33256 71.4474 7.37656 70.7817 7.51956C69.5015 7.78136 68.2104 7.96066 66.9378 8.25216C66.9289 8.13085 66.9209 8.00948 66.9138 7.88806C67.3158 7.80886 67.72 7.74506 68.1232 7.68236C68.1297 7.21926 68.1319 6.75726 68.1319 6.29416C67.7418 6.22486 67.3409 6.17536 66.9606 6.06426L66.8549 5.72656ZM68.4882 6.36236L68.4936 7.60096C69.6486 7.36776 70.8253 7.23466 71.9715 6.96296C70.8078 6.77376 69.6518 6.54496 68.4882 6.36236Z" fill="white"/>
<path d="M64.2552 8.36621C64.2595 12.9093 64.2748 17.4567 64.2464 21.9997H64.2377C62.5576 21.8677 60.8601 21.9975 59.1768 21.9282C60.7893 17.625 62.3877 13.3141 63.9893 9.00421C64.0743 8.78971 64.1615 8.57741 64.2552 8.36621Z" fill="#65C18F"/>
<path d="M66.9474 8.92787C68.6754 8.90917 70.4035 8.92677 72.1304 8.91797C72.3854 8.96527 72.9203 8.78597 72.7297 9.25017C71.1705 9.82987 69.5471 10.2479 67.9901 10.8298C69.5918 10.9145 71.2076 10.7594 72.8059 10.8584V11.1333C70.824 11.1707 68.8356 11.1553 66.8526 11.1421C66.9071 10.6263 67.3473 10.7022 67.7243 10.5328C69.0067 10.1104 70.3087 9.72977 71.5791 9.26887C70.008 9.19957 68.4303 9.27767 66.8581 9.25347L66.9474 8.92787ZM69.0012 11.988L68.9707 12.3444C68.4804 12.3477 67.964 12.3004 67.4791 12.3818C67.0989 12.5985 67.0891 13.5071 67.4791 13.7106C67.9661 13.7898 68.5229 13.7788 69.0132 13.7205C69.6397 13.3487 69.9208 12.4071 70.5713 12.0639C71.0561 11.9352 71.6118 11.9847 72.1097 12.0067C72.5586 12.0573 72.6839 12.3939 72.8059 12.7877V13.297C72.7447 13.5065 72.653 13.7056 72.5335 13.8877C72.1184 14.2474 71.3459 14.0714 70.8328 14.0989C70.8382 13.9845 70.8415 13.8701 70.8436 13.7557C71.3013 13.7106 72.0792 13.9075 72.3799 13.495C72.4224 13.143 72.5303 12.6018 72.162 12.3939C71.748 12.3059 71.1596 12.3026 70.7456 12.4016C70.1452 12.791 69.8565 13.7876 69.181 14.0648C68.6602 14.1693 68.0947 14.1352 67.5674 14.1044C67.4022 14.0916 67.2464 14.0223 67.1255 13.9079C67.0047 13.7935 66.9261 13.6409 66.9027 13.4752C66.8395 12.9857 66.8003 12.2762 67.344 12.0441C67.867 11.9088 68.463 11.988 69.0012 11.988ZM66.9452 14.9239C68.8716 14.8942 70.8055 14.9228 72.7329 14.9107C72.7313 15.481 72.7313 16.0511 72.7329 16.6212L72.3897 16.6146C72.3919 16.168 72.3919 15.7225 72.3886 15.2759C71.6118 15.2803 70.8328 15.2803 70.0559 15.2759C70.0537 15.717 70.0526 16.1603 70.0439 16.6025C69.9317 16.5915 69.8195 16.5838 69.7072 16.5739C69.7091 16.1402 69.7058 15.7064 69.6974 15.2726C68.7604 15.2836 67.8234 15.2825 66.8864 15.2737C66.9036 15.1568 66.9232 15.0401 66.9452 14.9239ZM66.9311 17.3175C68.8628 17.2845 70.8022 17.3098 72.7362 17.3065C72.7307 17.8763 72.7308 18.4461 72.7297 19.0159L72.3919 19.0093V17.6409C71.6118 17.6431 70.8328 17.6442 70.0526 17.6409C70.0537 18.0919 70.0526 18.5396 70.045 18.9906L69.7062 18.9719L69.7072 17.6409C68.8879 17.6431 68.0675 17.6442 67.2459 17.6409C67.2089 18.1062 67.3876 18.8289 67.0335 19.1776C66.8461 18.5924 66.918 17.9258 66.9311 17.3175ZM66.9169 19.8112C68.8541 19.809 70.7924 19.809 72.7275 19.8112C72.7242 20.3117 72.7711 20.8353 72.6872 21.3292C72.6065 21.5712 72.3527 21.7549 72.1773 21.932C71.5366 21.9342 70.8763 21.9936 70.2411 21.9012C70.045 21.7736 69.9001 21.6031 69.7367 21.4392C69.5874 21.6009 69.4425 21.7626 69.2736 21.9034C68.4695 21.9936 67.6393 21.9441 66.833 21.9188L66.9681 21.5624C67.6665 21.5008 68.3932 21.6097 69.0873 21.5074C69.6996 21.3677 69.5231 20.6362 69.5776 20.1698C68.6907 20.1621 67.8038 20.1687 66.9169 20.1632V19.8112ZM69.8903 20.1632C69.9121 20.5339 69.8086 21.0619 70.0712 21.3512C70.3653 21.5965 70.7576 21.5173 71.1171 21.5382C71.5213 21.5107 71.9811 21.6218 72.3026 21.3248C72.4442 20.9805 72.3788 20.5383 72.3984 20.1687C71.5628 20.1632 70.726 20.1665 69.8903 20.1632Z" fill="white"/>
</g>
</g>
<defs>
<clipPath id="clip0_646_41009">
<rect width="73" height="22" fill="white"/>
</clipPath>
</defs>
</svg>
