<svg width="72" height="24" viewBox="0 0 72 24" fill="none" xmlns="http://www.w3.org/2000/svg">
<g clip-path="url(#clip0_646_41050)">
<path fill-rule="evenodd" clip-rule="evenodd" d="M0.00878906 8.3934C0.00878906 15.487 8.61273 15.1323 9.94573 15.6052C11.6423 16.1964 11.5211 19.152 7.64327 19.152C5.58317 19.152 3.88662 18.9156 1.94771 18.3244C1.46298 18.2062 0.978247 17.9698 0.493518 17.8515V23.1717C1.94771 23.8811 6.91618 23.9993 8.97628 23.9993C14.3083 23.9993 19.1556 20.4525 17.8226 15.1323C16.4896 9.33921 8.73391 9.93035 7.64327 9.33921C6.31027 8.74808 6.31027 7.09291 7.76445 6.50177C9.70337 5.67419 13.5812 6.50177 15.5201 7.09291C16.126 7.32936 16.7319 7.56581 17.2167 7.68404V2.6003C16.3684 2.36384 15.8837 2.12739 14.1871 1.77271C11.7635 1.2998 10.794 1.2998 8.37037 1.2998C4.0078 1.2998 0.00878906 4.13724 0.00878906 8.3934Z" fill="#852164"/>
<path fill-rule="evenodd" clip-rule="evenodd" d="M19.5195 2.48207V23.7629H25.821V17.3786C25.9422 17.6151 25.821 17.4968 25.9422 17.7333L26.5481 18.7973C26.7905 19.2702 27.0328 19.7432 27.2752 20.3343C27.5176 20.9254 28.2447 23.0535 28.2447 23.7629H35.8791C35.758 23.5264 35.6368 23.0535 35.5156 22.6988L34.0614 19.5067C31.0318 13.4771 31.6378 16.6693 34.3038 11.5855C34.7885 10.8762 36.1215 8.15695 36.2427 7.21113H29.0929C28.8506 8.3934 26.5481 12.2949 25.821 12.886V1.2998C24.6092 1.2998 20.489 2.48207 19.5195 2.48207Z" fill="#852065"/>
<path fill-rule="evenodd" clip-rule="evenodd" d="M57.207 2.36384V23.7629H63.2661V1.2998C62.2967 1.2998 58.54 2.24562 57.207 2.36384Z" fill="#862064"/>
<path fill-rule="evenodd" clip-rule="evenodd" d="M65.9316 2.36384V23.7629H71.9908V1.2998C71.2637 1.2998 66.6587 2.36384 65.9316 2.36384Z" fill="#852164"/>
<path fill-rule="evenodd" clip-rule="evenodd" d="M36.9697 14.3054V23.7635H43.0288V16.6699C43.0288 13.3596 43.5136 12.0591 46.9067 12.0591V7.09356C45.816 7.09356 46.7855 6.97533 44.9678 7.09356C43.15 7.33001 41.817 7.33001 39.8781 8.51228C38.1815 9.57632 36.9697 11.5862 36.9697 14.3054Z" fill="#862164"/>
<path fill-rule="evenodd" clip-rule="evenodd" d="M48.7236 23.7636H54.7827V7.33008H48.7236V23.7636Z" fill="#852164"/>
<path fill-rule="evenodd" clip-rule="evenodd" d="M48.8457 2.71893C48.8457 3.66475 48.9669 4.25588 49.694 4.96524C52.36 7.56623 56.6014 3.66475 53.8142 0.827309C51.9964 -1.06432 48.8457 0.590856 48.8457 2.71893Z" fill="#862165"/>
</g>
<defs>
<clipPath id="clip0_646_41050">
<rect width="72" height="24" fill="white"/>
</clipPath>
</defs>
</svg>
