<svg width="81" height="46" viewBox="0 0 81 46" fill="none" xmlns="http://www.w3.org/2000/svg">
<g clip-path="url(#clip0_646_41087)">
<path fill-rule="evenodd" clip-rule="evenodd" d="M68.8664 30.6685C68.7554 31.5794 68.6085 32.4542 68.4265 33.2928C67.6624 33.0392 66.7802 32.632 65.5353 32.7169C64.7922 32.7677 63.9132 33.0583 63.9015 33.7409C63.8882 34.497 65.1079 34.9467 65.787 35.2773C67.0105 35.8739 68.324 36.6689 68.4265 38.2862C68.5048 39.5297 67.9383 40.6117 67.2954 41.2312C65.5821 42.8807 61.7814 43.0546 59.1875 41.9996C59.3492 41.1185 59.4961 40.2223 59.6278 39.3106C60.6319 39.7456 62.0113 40.3334 63.5243 40.1429C64.2136 40.056 65.0572 39.6468 65.0327 38.9268C65.0026 38.0481 63.3926 37.5254 62.5814 37.0701C61.6388 36.5411 60.5661 35.6607 60.5076 34.3172C60.4683 33.4222 60.8104 32.584 61.2616 32.0128C62.6008 30.3173 66.043 29.7148 68.8664 30.6685Z" fill="#3956A6"/>
<path fill-rule="evenodd" clip-rule="evenodd" d="M38.0644 13.5234H41.5296L39.3962 27.2201H35.9307L38.0644 13.5234Z" fill="#3956A6"/>
<path fill-rule="evenodd" clip-rule="evenodd" d="M29.0984 16.247L28.563 19.6833H29.5652C30.5389 19.6833 31.4604 18.9106 31.6136 17.9651C31.7663 17.0201 31.0946 16.247 30.1208 16.247H29.0984ZM26.0576 13.5234H31.363C34.739 13.5234 35.6153 15.5036 35.2471 17.8683C34.9393 19.8437 33.5463 21.1614 31.7367 21.6301L35.0975 27.2205H30.747L28.2271 21.8417L27.389 27.2205H23.9238L26.0576 13.5234Z" fill="#3956A6"/>
<path fill-rule="evenodd" clip-rule="evenodd" d="M53.89 13.5234H57.3551L55.2218 27.2201H51.7559L53.89 13.5234Z" fill="#3956A6"/>
<path fill-rule="evenodd" clip-rule="evenodd" d="M59.9869 13.5234H67.5952L67.1315 16.5018H62.9887L62.6244 18.8423H66.5622L66.0989 21.8202H62.1599L61.7828 24.2425H65.9255L65.4618 27.2205H57.8535L59.9869 13.5234Z" fill="#3956A6"/>
<path fill-rule="evenodd" clip-rule="evenodd" d="M16.3896 13.5234H23.9975L23.5334 16.5018H19.3911L19.0264 18.8423H22.9649L22.5009 21.8202H18.5627L18.1851 24.2425H22.3279L21.8642 27.2205H14.2559L16.3896 13.5234Z" fill="#3956A6"/>
<path fill-rule="evenodd" clip-rule="evenodd" d="M44.1537 13.5234H51.8469L51.3836 16.5018H47.1547L46.7846 18.8423H50.632L50.1667 21.8202H46.3209L45.4792 27.2205H42.0195L44.1537 13.5234Z" fill="#3956A6"/>
<mask id="mask0_646_41087" style="mask-type:luminance" maskUnits="userSpaceOnUse" x="67" y="13" width="14" height="15">
<path d="M67.501 13.5225H80.4119V27.2195H67.501V13.5225Z" fill="white"/>
</mask>
<g mask="url(#mask0_646_41087)">
<path fill-rule="evenodd" clip-rule="evenodd" d="M72.6362 16.5008H73.352C76.0008 16.5008 77.0361 18.4035 76.7509 20.2396C76.3663 22.7024 74.6281 24.2415 72.3564 24.2415H71.4298L72.6362 16.5008ZM69.6347 13.5225H74.1508C79.5307 13.5225 80.7573 17.6673 80.3357 20.3745C79.7329 24.2415 76.348 27.2195 72.017 27.2195H67.501L69.6347 13.5225Z" fill="#3956A6"/>
</g>
<mask id="mask1_646_41087" style="mask-type:luminance" maskUnits="userSpaceOnUse" x="0" y="-1" width="23" height="29">
<path d="M0.143555 -0.133789H22.3007V27.2201H0.143555V-0.133789Z" fill="white"/>
</mask>
<g mask="url(#mask1_646_41087)">
<path fill-rule="evenodd" clip-rule="evenodd" d="M0.143555 11.6573H6.55409L7.31546 21.608C11.5568 14.1296 15.8675 6.93421 20.2102 -0.133789H22.3007C17.7036 8.89648 13.1649 17.9851 8.76886 27.2202H4.06266L2.91553 16.2467C2.6307 13.5231 2.09064 12.3666 0.143555 12.0741V11.6573Z" fill="#3956A6"/>
</g>
<path fill-rule="evenodd" clip-rule="evenodd" d="M2.57109 5.99872L8.03672 8.35869L8.51171 14.5587H8.91538L13.8768 6.00269V5.57324H2.57031L2.57109 5.99872Z" fill="#F7971D"/>
<path fill-rule="evenodd" clip-rule="evenodd" d="M25.0407 30.4404H27.2835L26.5276 35.8391C27.1682 35.2092 27.9518 34.8194 28.8273 34.8194C30.6267 34.8194 31.8066 36.5856 31.4886 38.7658C31.1707 40.9456 29.4742 42.7134 27.6747 42.7134C26.7875 42.7134 26.1516 42.3062 25.7183 41.6215L25.5987 42.4776H23.3555L25.0407 30.4404ZM27.84 37.0306C28.6687 37.0306 29.2318 37.8041 29.0974 38.7575C28.9633 39.7104 28.1828 40.484 27.3541 40.484C26.5257 40.484 25.9622 39.7104 26.0963 38.7575C26.2307 37.8041 27.0116 37.0306 27.84 37.0306Z" fill="#3956A6"/>
<mask id="mask2_646_41087" style="mask-type:luminance" maskUnits="userSpaceOnUse" x="31" y="35" width="10" height="12">
<path d="M31.0889 35.0039H40.5153V46.1714H31.0889V35.0039Z" fill="white"/>
</mask>
<g mask="url(#mask2_646_41087)">
<path fill-rule="evenodd" clip-rule="evenodd" d="M31.6811 35.0039H34.3725L35.5761 38.8304L37.9144 35.0039H40.5153L33.6894 46.1715H31.0889L33.9668 41.4623L31.6811 35.0039Z" fill="#3956A6"/>
</g>
<path fill-rule="evenodd" clip-rule="evenodd" d="M53.8887 42.4743L55.8599 30.4375H59.0851L57.1138 42.4743H53.8887Z" fill="#3956A6"/>
<path fill-rule="evenodd" clip-rule="evenodd" d="M51.1928 30.4121C50.0807 33.0781 49.1327 35.9108 47.9875 38.5422L47.6516 36.9633C47.6505 36.9574 47.6474 36.9502 47.6462 36.9443L47.7031 37.2253C47.4545 36.3942 47.0313 35.6107 46.4909 34.8919C46.4765 34.8733 46.462 34.8546 46.4476 34.836C46.3529 34.7125 46.2524 34.5923 46.1511 34.4724C46.0892 34.3994 46.0264 34.3263 45.9621 34.2541C45.1813 33.3841 44.2348 32.6336 43.2354 32.0382L46.1024 42.4473H49.559C51.1858 38.3858 52.9419 34.4557 54.5867 30.4121H51.1928Z" fill="#3956A6"/>
<path fill-rule="evenodd" clip-rule="evenodd" d="M45.1054 30.4141H39.833V30.676C42.868 31.2789 46.6998 33.8723 47.7028 37.2253L46.5712 31.6191C46.4165 30.7546 45.8258 30.4141 45.1054 30.4141Z" fill="#3956A6"/>
<path fill-rule="evenodd" clip-rule="evenodd" d="M74.8458 33.7465L73.2034 38.2219H75.8593L74.8458 33.7465ZM79.7398 42.5112H76.7859C76.5946 41.9377 76.5416 41.2237 76.346 40.6545H72.3236L71.5696 42.5112H68.1758L72.5749 32.2045C72.7694 31.7524 73.1185 31.1349 73.2662 30.8602C73.4902 30.4435 74.3545 30.4121 74.7223 30.4121H77.1627L79.7398 42.5112Z" fill="#3956A6"/>
</g>
<defs>
<clipPath id="clip0_646_41087">
<rect width="81" height="46" fill="white"/>
</clipPath>
</defs>
</svg>
