<svg width="68" height="21" viewBox="0 0 68 21" fill="none" xmlns="http://www.w3.org/2000/svg">
<g clip-path="url(#clip0_646_40975)">
<path fill-rule="evenodd" clip-rule="evenodd" d="M23.9999 20.7477L27.4117 0.370072H32.9411L29.5294 20.7477H23.9999ZM49.4117 0.84397C48.3529 0.488546 46.7058 0.0146484 44.4705 0.0146484C39.0588 0.0146484 35.2941 2.73956 35.1764 6.7677C35.1764 9.61108 37.9999 11.2697 39.9999 12.2175C42.2352 13.2838 42.9411 13.8762 42.9411 14.824C42.9411 16.1272 41.1764 16.7196 39.647 16.7196C37.4117 16.7196 36.2352 16.4826 34.4705 15.6533L33.647 15.4163L32.9411 19.9184C34.2352 20.5107 36.5882 20.9846 39.0588 20.9846C44.8235 20.9846 48.5882 18.2597 48.7058 14.1131C48.7058 11.7436 47.1764 9.96651 43.9999 8.54481C42.1176 7.59702 40.9411 7.00464 40.9411 6.05685C40.9411 5.22753 41.9999 4.27973 44.1176 4.27973C45.8823 4.27973 47.1764 4.63515 48.2352 4.99058L48.7058 5.22753L49.4117 0.84397ZM63.647 0.370072H59.2941C57.9999 0.370072 57.0588 0.725495 56.4705 2.02872L48.2352 20.7477H53.9999C53.9999 20.7477 54.9411 18.2597 55.1764 17.6673H62.2352C62.4705 18.3782 62.9411 20.7477 62.9411 20.7477H67.9999L63.647 0.370072ZM56.8235 13.5207C57.2941 12.336 58.9411 7.83397 58.9411 7.83397C58.9411 7.83397 59.4117 6.64922 59.7646 5.8199L60.1176 7.59702C60.1176 7.59702 61.1764 12.4545 61.4117 13.5207H56.8235ZM19.2941 0.370072L13.9999 14.2316L13.4117 11.3882C12.3529 8.18939 9.29406 4.63515 5.76465 2.85804L10.7058 20.7477H16.4705L25.1764 0.370072H19.2941Z" fill="#1534CD"/>
<path fill-rule="evenodd" clip-rule="evenodd" d="M8.94118 0.370117H0.117647L0 0.844015C6.94118 2.50266 11.5294 6.53079 13.4118 11.3882L11.4118 2.14723C11.1765 0.844015 10.1176 0.370117 8.94118 0.370117Z" fill="#FCBF16"/>
</g>
<defs>
<clipPath id="clip0_646_40975">
<rect width="68" height="21" fill="white"/>
</clipPath>
</defs>
</svg>
